<svg width="180" height="184" fill="none" xmlns="http://www.w3.org/2000/svg"><path d="M132.633 138.958l.602 1.285.336-1.379c.541-2.22 1.292-5.276 1.453-5.804l.001-.002c2.453-8.152 5.962-15.441 9.621-23.045.467-.968.935-1.942 1.404-2.923a.64.64 0 111.155.555c-.485 1.014-.97 2.021-1.453 3.024-3.588 7.45-7.069 14.677-9.503 22.76-.087.291-.258 1.082-.469 2.058-.095.439-.198.917-.305 1.402-.352 1.596-.754 3.31-1.089 4.289l-.001.002c-.203.599-.422.939-.523 1.044a.763.763 0 01-.388.225h0l-.006.001a.674.674 0 01-.298.009c-.103-.022-.239-.081-.381-.256l-.002-.002-.001-.001a1.101 1.101 0 01-.041-.064c-.027-.046-.059-.105-.097-.175-.074-.14-.159-.312-.242-.486a38.317 38.317 0 01-.262-.556l-.097-.207c-.435-.898-.856-1.813-1.278-2.733-.864-1.881-1.738-3.783-2.766-5.599h0c-3.396-5.991-8.19-11.528-14.049-15.259a.643.643 0 01-.196-.886.645.645 0 01.887-.195c6.003 3.828 10.96 9.511 14.473 15.709h0c1.02 1.798 1.877 3.659 2.745 5.546.254.552.509 1.107.77 1.663z" fill="#000" stroke="#000"/><path d="M29 66.272C70.569 38.036 93.106 56.86 45.527 78.3c50.404-7.22 92.629 18.991 88.146 61.701" stroke="#000" stroke-width="2"/></svg>