<svg width="70" height="70" fill="none" xmlns="http://www.w3.org/2000/svg"><rect x="1.5" y="1.5" width="67" height="67" rx="33.5" fill="#61BCFF"/><rect x="1.5" y="1.5" width="67" height="67" rx="33.5" stroke="#000" stroke-width="3"/><path d="M31.553 22.841v6.841l-3.57-1.785c-1.962-.951-3.806-1.784-4.163-1.784-1.368 0-.417 1.844 2.141 4.104 1.844 1.607 2.499 2.499 1.963 2.677-.476.179-3.985 1.13-7.911 2.082-7.317 1.785-8.804 2.558-7.674 3.688.416.417 3.272.239 9.637-.713 4.997-.714 9.22-1.13 9.399-.952.178.238-.833 2.32-2.201 4.7-1.428 2.379-2.618 4.52-2.737 4.699-.119.238.179.714.595 1.07.714.595 1.309.298 3.212-1.368 1.31-1.19 2.618-2.141 2.915-2.141.298 0 .893 1.784 1.369 3.985 1.01 5.116 1.725 6.722 3.033 6.722 1.606 0 1.904-1.844 1.428-8.685-.238-3.45-.238-6.186.06-6.186.297 0 2.676.952 5.294 2.082 5.175 2.26 6.84 2.558 6.84 1.249 0-1.19-.951-2.023-5.532-5.175-2.2-1.428-3.985-2.796-3.985-2.975 0-.178 3.034-1.19 6.722-2.26 6.603-1.904 9.34-3.153 9.34-4.224 0-.892-3.748-.714-9.697.357-2.855.536-5.413.833-5.592.595-.178-.178.238-1.725.952-3.39 2.677-6.485 1.011-7.08-3.153-1.071-1.547 2.32-3.093 3.985-3.331 3.688-.238-.238-.892-2.618-1.487-5.235C34.23 17.844 33.457 16 32.326 16c-.594 0-.773 1.547-.773 6.841z" fill="#000"/></svg>