<svg width="581" height="573" fill="none" xmlns="http://www.w3.org/2000/svg"><path fill="#fff" d="M24 19h533v534H24z"/><path d="M23.087 4c0 59.727.637 83.73.637 147.249m0 0c0 63.519-.099 179.289-.637 257.099-.538 77.809-.955 153.545-.955 153.545 0 10.99-1.177-1.979-1.091-7.827.107-7.309 1.136-215.279 1.136-233.435 0-18.155.91-110.575 1.547-169.382z" stroke="#000" stroke-width="6.281" stroke-miterlimit="10" stroke-linecap="round" stroke-linejoin="round"/><path d="M468.596 553.327h103.857c-.493.286-4.944 1.38-6.781 1.601-2.295.277-62.521.126-75.374.126-44 0-242.766-1.033-255.775-1.033m234.073-.694s-210.694 1.727-244.297 1.727c-33.604 0-25.656.047-96.597 0-53.037-.035-116.457 0-120.725 0-4.268 0-2.693-2.072-2.693-2.072 29.831 1.039 81.749 1.039 149.935 1.039h80.304m234.073-.694c-63.861 0-154.369.694-234.073.694" stroke="#000" stroke-width="6.281" stroke-miterlimit="10" stroke-linecap="round" stroke-linejoin="round"/><path d="M557.218 287.36c0 69.506 1.417 113.238 1.417 158.684 0 45.447-.724 122.439-.724 122.439s-1.666 3.244-1.666-3.096 1.09-51.412.973-116.186c-.117-64.775-.112-132.65 0-161.841zm0 0c0-32.766-.757-99.696-.712-136.94.05-41.763 0-101.906 0-142.232" stroke="#000" stroke-width="6.281" stroke-miterlimit="10" stroke-linecap="round" stroke-linejoin="round"/><path d="M15.516 18.512h73.013m0 0c15.736 0 85.602.305 115.186.305m-115.186-.305s34.124-.95 54.131-.95c20.007 0 61.055 1.255 61.055 1.255m373.972 0c-31.308 0-16.832-.305-47.929-.305-17.726 0-39.41.509-70.496.305m-172.277-1.255c21.514.03 133.96 1.005 172.277 1.255m-172.277-1.255c-22.249-.03-53.687 1.255-83.27 1.255m83.27-1.255h84.157m88.12 1.255s-57.907-1.255-88.12-1.255m-167.427 1.255h83.27c23.099 0 65.729-.837 84.157-1.255" stroke="#000" stroke-width="6.281" stroke-miterlimit="10" stroke-linecap="round" stroke-linejoin="round"/></svg>