<svg width="77" height="90" fill="none" xmlns="http://www.w3.org/2000/svg"><path d="M60.312 14.67c-.587-.9-5.842-1.657-11.863-1.833-9.364-.245-10.945.116-11.5 2.019-1.587 4.769.614 5.84 11.56 5.724 11.87-.305 14.86-1.684 11.803-5.91zM42.83 43.415c-11.537-7.596-15.077-8.721-14.824-4.462.103 1.73 4.043 5.102 11.83 10.25 6.532 4.286 12.21 7.689 12.876 7.65.532-.032.977-1.528.875-3.259-.143-2.395-2.83-4.907-10.757-10.18zM28.52 66.743c-6.06-9.79-13.245-18.313-14.653-17.293-2.434 1.747-.991 5.802 5.238 13.98 3.346 4.61 6.974 9.47 8 11.012 1.027 1.541 2.304 2.801 2.97 2.762 2.795-.166 2.135-4.535-1.557-10.46z" fill="#000"/></svg>