<svg width="185" height="184" fill="none" xmlns="http://www.w3.org/2000/svg"><g filter="url(#filter0_d_1_973)" fill="#000" stroke="#000" clip-path="url(#clip0_1_973)"><path d="M51.914 75.078l.323.928c14.682-2.162 35.58.996 52.703 9.751l.227-.445-.227.445c10.153 5.191 18.938 12.313 24.367 21.376 5.421 9.05 7.518 20.069 4.25 33.119l-.001.001a.64.64 0 11-1.241-.313c3.18-12.701 1.109-23.465-4.238-32.312-5.339-8.832-13.922-15.72-23.722-20.73-9.889-5.056-21.05-8.234-31.5-9.567-10.445-1.332-20.224-.827-27.338 1.524h0c-.344.114-.536.036-.647-.04a.748.748 0 01-.234-.266h0a.722.722 0 01-.081-.322c0-.114.037-.28.245-.471h0s.007-.007.026-.02c.02-.016.047-.035.081-.059a8.72 8.72 0 01.276-.18c.228-.145.532-.33.892-.544.72-.429 1.655-.97 2.63-1.53l1.97-1.128a249.346 249.346 0 002.952-1.701c.673-.401 1.633-.901 2.78-1.497l.109-.057c1.117-.58 2.394-1.242 3.717-1.975 2.727-1.509 5.686-3.33 7.892-5.366 1.247-1.15 2.308-2.405 2.818-3.75.523-1.379.455-2.83-.512-4.287-.975-1.471-2.467-2.295-4.242-2.67-1.766-.372-3.838-.309-6.04.006h0c-5.643.808-12.346 3.433-18.117 6.323-5.763 2.887-10.677 6.08-12.723 8.069h0a.64.64 0 01-.905-.01v-.001a.64.64 0 01.013-.907c2.015-1.96 7.017-5.237 12.996-8.24 5.97-2.998 12.835-5.682 18.554-6.501 5.339-.764 9.51.173 11.531 3.221 1.124 1.695 1.3 3.343.82 4.937-.487 1.619-1.665 3.22-3.326 4.752h0c-2.174 2.006-5.122 3.84-7.905 5.392-1.364.761-2.681 1.45-3.84 2.057l-.06.031c-1.166.61-2.18 1.142-2.902 1.572-.463.275-1.344.791-2.371 1.385z"/><path d="M133.235 140.243l-.602-1.285c-.261-.556-.516-1.11-.77-1.663-.868-1.886-1.725-3.748-2.745-5.546h0c-3.513-6.198-8.47-11.881-14.473-15.709a.645.645 0 00-.887.195.643.643 0 00.196.886c5.859 3.731 10.653 9.268 14.049 15.259v.001c1.028 1.816 1.902 3.717 2.766 5.598.422.92.843 1.834 1.278 2.732l.097.208c.071.153.169.364.262.557.083.173.168.345.242.485.038.07.07.129.097.175.025.042.038.06.041.065h.001l.002.003c.142.174.278.233.381.255.114.024.222.01.298-.009l.006-.001h0a.769.769 0 00.389-.225c.1-.105.319-.445.522-1.044l.001-.002c.335-.979.737-2.693 1.089-4.289.107-.485.21-.962.305-1.402.211-.975.382-1.767.469-2.058 0 0 0 0 0 0l.479.144c2.422-8.043 5.885-15.233 9.474-22.686.484-1.004.969-2.011 1.454-3.027l-14.421 32.383zm0 0l.336-1.379c.541-2.22 1.292-5.275 1.453-5.804l.001-.002c2.453-8.152 5.962-15.441 9.621-23.045.467-.968.935-1.942 1.405-2.923a.639.639 0 01.852-.302.646.646 0 01.302.857l-13.97 32.598z"/></g><defs><clipPath id="clip0_1_973"><path fill="#fff" transform="rotate(42.626 44.458 113.953)" d="M0 0h130v130H0z"/></clipPath><filter id="filter0_d_1_973" x="26.722" y="50.978" width="121.045" height="95.993" filterUnits="userSpaceOnUse" color-interpolation-filters="sRGB"><feFlood flood-opacity="0" result="BackgroundImageFix"/><feColorMatrix in="SourceAlpha" values="0 0 0 0 0 0 0 0 0 0 0 0 0 0 0 0 0 0 127 0" result="hardAlpha"/><feOffset dx="-1" dy="4"/><feComposite in2="hardAlpha" operator="out"/><feColorMatrix values="0 0 0 0 0 0 0 0 0 0 0 0 0 0 0 0 0 0 1 0"/><feBlend in2="BackgroundImageFix" result="effect1_dropShadow_1_973"/><feBlend in="SourceGraphic" in2="effect1_dropShadow_1_973" result="shape"/></filter></defs></svg>