<svg width="48" height="49" fill="none" xmlns="http://www.w3.org/2000/svg"><path d="M44 24.5a19.938 19.938 0 01-5.889 14.173A19.936 19.936 0 0124 44.5c-11.046 0-20-8.954-20-20a19.932 19.932 0 015.5-13.775A19.944 19.944 0 0124 4.5a19.937 19.937 0 0114.111 5.827A19.937 19.937 0 0144 24.5z" stroke="#000" stroke-width="3" stroke-linecap="round" stroke-linejoin="round"/><path d="M44 24.5c-2.918 0-10.968-1.1-18.173 2.063C18 30 12.333 35.332 9.863 38.647" stroke="#000" stroke-width="3" stroke-linecap="round" stroke-linejoin="round"/><path d="M16.5 5.954C19.63 8.844 26.46 16.198 29 23.5c2.54 7.302 3.48 16.28 4.06 18.835" stroke="#000" stroke-width="3" stroke-linecap="round" stroke-linejoin="round"/><path d="M4.154 22c3.778.228 13.78.433 20.18-2.3 6.4-2.733 11.906-7.76 13.795-9.355M5.5 32.113a20.076 20.076 0 009 9.991" stroke="#000" stroke-width="3" stroke-linecap="round" stroke-linejoin="round"/><path d="M4 24.5a19.932 19.932 0 015.5-13.775A19.943 19.943 0 0124 4.5m8 1.664a20.037 20.037 0 016.111 4.163A19.937 19.937 0 0144 24.5c0 2.462-.445 4.821-1.26 7M24 44.5a19.938 19.938 0 0014.111-5.827" stroke="#000" stroke-width="3" stroke-linecap="round" stroke-linejoin="round"/></svg>