<svg width="48" height="49" fill="none" xmlns="http://www.w3.org/2000/svg"><path d="M24.002 18.5a6 6 0 100 12 6 6 0 000-12zm0-4a10 10 0 110 20 10 10 0 010-20zm13-.5a2.5 2.5 0 11-5 0 2.5 2.5 0 015 0zm-13-5.5c-4.948 0-5.756.014-8.058.116-1.568.074-2.62.284-3.596.664-.817.3-1.555.78-2.16 1.406a5.78 5.78 0 00-1.408 2.16c-.38.98-.59 2.03-.662 3.596C8.014 18.65 8 19.422 8 24.5c0 4.95.014 5.756.116 8.058.074 1.566.284 2.62.662 3.594.34.87.74 1.496 1.404 2.16a5.802 5.802 0 002.16 1.406c.988.382 2.04.594 3.6.666 2.208.104 2.98.116 8.058.116 4.95 0 5.756-.014 8.058-.116 1.564-.074 2.616-.284 3.594-.662a5.821 5.821 0 002.16-1.406 5.751 5.751 0 001.408-2.16c.38-.984.592-2.036.664-3.6.104-2.206.116-2.98.116-8.056 0-4.948-.014-5.756-.116-8.058-.074-1.564-.286-2.62-.664-3.596a5.824 5.824 0 00-1.406-2.16 5.768 5.768 0 00-2.16-1.408c-.98-.38-2.032-.59-3.596-.662C29.852 8.512 29.08 8.5 24 8.5m0-4c5.434 0 6.112.02 8.246.12 2.128.1 3.58.434 4.854.93 1.32.508 2.432 1.196 3.544 2.306A9.816 9.816 0 0142.95 11.4c.494 1.274.83 2.726.93 4.856.094 2.132.12 2.81.12 8.244 0 5.434-.02 6.112-.12 8.244-.1 2.13-.436 3.58-.93 4.856a9.768 9.768 0 01-2.306 3.544A9.83 9.83 0 0137.1 43.45c-1.274.494-2.726.83-4.854.93-2.134.094-2.812.12-8.246.12-5.434 0-6.112-.02-8.246-.12-2.128-.1-3.578-.436-4.854-.93a9.78 9.78 0 01-3.544-2.306A9.81 9.81 0 015.05 37.6c-.496-1.274-.83-2.726-.93-4.856C4.024 30.612 4 29.934 4 24.5c0-5.434.02-6.112.12-8.244.1-2.13.434-3.58.93-4.856a9.76 9.76 0 012.306-3.544A9.794 9.794 0 0110.9 5.55c1.274-.496 2.724-.83 4.854-.93 2.136-.094 2.814-.12 8.248-.12" fill="#000"/></svg>