<svg width="95" height="97" fill="none" xmlns="http://www.w3.org/2000/svg"><g filter="url(#filter0_d_227_8)"><rect x="1" y="1" width="90.011" height="90.011" rx="45.006" fill="#FFDC58" stroke="#000" stroke-width="2"/><path fill-rule="evenodd" clip-rule="evenodd" d="M44.798 73.565a.017.017 0 00-.017-.016c-1.17-.03-2.369-.144-3.548-.474-.43-.12-.87-.24-1.285-.44a5.957 5.957 0 01-2.647-2.457 3.195 3.195 0 01-.392-1.234c-.051-.385-.01-.78.084-1.154.103-.375.285-.716.499-1.029.572-.785 1.543-1.256 2.449-1.17.284.019.243.165.061.388-.195.197-.457.599-.748.819-.28.19-.443.476-.624.693a1.91 1.91 0 00-.323.761c-.071.26-.084.54-.029.83.057.289.201.577.396.917.238.377.565.705.942.973a6.56 6.56 0 001.255.641c.978.388 2.077.557 3.187.627.686.04 1.382.049 2.067.01 1.04-.061 2.09-.19 3.075-.496.772-.215 1.487-.545 2.169-.92.151-.082.292-.173.44-.26.55-.326.756-.385 1.006-.296.056.02.12.031.165.057.141.07.037.386-.343.747a8.929 8.929 0 01-1.948 1.366c-.36.184-.731.363-1.117.5-.389.123-.785.226-1.185.306-1.18.25-2.387.33-3.572.328a.017.017 0 01-.017-.017z" fill="#231F20"/><path fill-rule="evenodd" clip-rule="evenodd" d="M48.006 74.007a.01.01 0 00-.011-.006c-.635.168-1.28.288-1.928.387l-.714.096c-.845.061-1.696.043-2.534-.075a14.73 14.73 0 01-1.111-.193c-.465-.117-.954-.237-1.35-.542-.127-.09-.027-.205.152-.276a.979.979 0 01.656-.017c.826.31 1.73.45 2.66.53.557.043 1.141-.019 1.709-.1a14.64 14.64 0 001.868-.356c.38-.09.754-.215 1.128-.331l.843-.3c.276-.111.55-.23.82-.352.412-.204.796-.445 1.195-.66l.258-.15c.33-.18.46-.193.588-.139.03.013.064.022.086.038.074.052-.018.195-.233.382-.632.564-1.395 1.027-2.209 1.39a11.22 11.22 0 01-1.862.68.01.01 0 01-.011-.006zm1.231 3.995a.013.013 0 00.017 0c.198-.172.369-.414.525-.667.061-.091.083-.208.14-.305.196-.352.368-.733.539-1.127.082-.172.142-.355.209-.538.09-.232.149-.496.41-.685.075-.059.16.058.239.2.075.15.165.274.142.395-.114.389-.163.894-.443 1.33-.152.267-.214.583-.35.874a5.07 5.07 0 01-.551.923c-.156.17-.292.35-.481.49-.135.11-.28.207-.434.29l-.003.001c-.15.096-.317.144-.48.206-.125.058-.25.097-.38.133-.127.034-.262.095-.393.105a.815.815 0 01-.174.004c-.219-.028-.283-.093-.299-.313-.004-.046-.011-.092-.011-.134 0-.133.1-.3.226-.36.389-.193.678-.257.96-.395.187-.122.4-.224.574-.425a.013.013 0 01.018-.002zm-9.775-10.956a.02.02 0 00-.024-.007c-.153.064-.331.134-.486.254-.057.045-.092.11-.149.156a2.605 2.605 0 00-.566.582.602.602 0 00-.084.32c-.004.145.048.224-.06.336-.039.038-.278.15-.546.18-.259.043-.597-.08-.624-.252a1.28 1.28 0 01.084-.8c.09-.23.231-.418.4-.577.207-.182.298-.433.478-.626.2-.208.422-.393.674-.546.148-.099.324-.166.489-.24a2.66 2.66 0 01.835-.177c.114-.002.23-.03.349-.035.116.006.24.012.36.032.057.004.098.034.143.062.155.123.159.23.047.453-.025.05-.049.101-.077.148a.955.955 0 01-.35.326c-.346.195-.364.252-.51.287a1.52 1.52 0 00-.358.13.02.02 0 01-.025-.006z" fill="#231F20"/><path fill-rule="evenodd" clip-rule="evenodd" d="M28.784 56.592a.01.01 0 000-.013c-1.487-1.725-2.828-3.594-3.9-5.618a15.232 15.232 0 01-.563-1.121 11.05 11.05 0 01-.499-1.152 19.516 19.516 0 01-1.326-8.661c.036-.65.144-1.297.222-1.943.14-.635.217-1.284.4-1.903.367-1.61.992-3.21 1.961-4.562.305-.42.332-.311.184.105-.154.416-.412 1.169-.756 2.023-.151.38-.286.767-.406 1.157-.12.389-.203.798-.319 1.192-.113.397-.215.795-.282 1.202-.071.405-.178.805-.221 1.215-.26 1.627-.28 3.288-.12 4.94.188 1.98.804 3.987 1.665 5.832a27.784 27.784 0 003.543 5.726 37.875 37.875 0 002.756 3.135c1.468 1.517 3.042 2.947 4.648 4.301 1.249 1.054 2.52 2.03 3.776 3.054.275.228.553.44.821.682 1.005.883 1.277 1.226 1.377 1.533.023.069.063.15.069.198.016.162-.433-.15-1.184-.76-2.24-1.794-4.667-3.653-6.974-5.692-1.708-1.514-3.366-3.115-4.872-4.857a.01.01 0 010-.013z" fill="#231F20"/><path fill-rule="evenodd" clip-rule="evenodd" d="M25.808 30.44c.01.004.022 0 .029-.008a19.276 19.276 0 013.377-3.452 22.417 22.417 0 014.12-2.47c2.921-1.299 6.11-2.007 9.32-1.906a21.177 21.177 0 015.17.81c.562.162 1.112.4 1.666.604 1.917.838 3.623 2.129 4.983 3.687 1.367 1.558 2.397 3.372 3.103 5.282 1.435 3.822 1.71 7.97 1.176 11.935-.214 1.766-.59 3.509-1.053 5.218-.449 1.716-1.037 3.383-1.663 5.02a50.75 50.75 0 01-2.852 6.124 50.146 50.146 0 01-3.606 5.694c-.828 1.129-.869.866-.401-.235.24-.547.578-1.32 1.01-2.232a60.2 60.2 0 011.522-3.104c1.05-1.995 1.95-4.058 2.81-6.127a48.081 48.081 0 002.107-6.369c1.097-4.32 1.436-8.861.391-13.194a18.912 18.912 0 00-1.355-3.762 14.705 14.705 0 00-2.252-3.324c-.898-.994-1.935-1.872-3.105-2.521a14.29 14.29 0 00-3.734-1.455c-5.788-1.448-12.24.058-16.875 3.864-1.417 1.173-2.649 2.575-3.553 4.169-.203.41-.42.813-.614 1.227l-.475 1.285c-.238.896-.485 1.792-.606 2.712l-.086.52-.044.524-.083 1.05.007 1.054.006.526.049.526c.084 1.406.408 2.788.807 4.139.408 1.353.997 2.645 1.637 3.906a32.427 32.427 0 002.256 3.59c2.598 3.56 5.796 6.52 9.075 9.416.724.639 1.447 1.248 2.169 1.912 2.681 2.434 3.41 3.503 3.55 4.368.03.198.063.446.047.559-.016.097-.077.088-.182 0-.11-.088-.223-.259-.455-.479a34.566 34.566 0 00-2.12-2.004c-2.946-2.528-6.115-5.1-9.014-8.074-2.894-2.965-5.602-6.336-7.382-10.297a22.965 22.965 0 01-1.504-4.602c-.352-1.59-.441-3.234-.39-4.863.06-1.634.384-3.24.808-4.805a16.04 16.04 0 012.18-4.43.024.024 0 01.029-.009z" fill="#231F20"/><path fill-rule="evenodd" clip-rule="evenodd" d="M41.9 72.534c0 .01.006.017.015.02 1.58.286 3.26.238 4.906-.03.599-.106 1.206-.272 1.786-.4.977-.253 1.972-.718 2.88-1.257.907-.547 1.753-1.218 2.342-2.033.497-.735.613-1.616.172-2.338-.274-.458-.734-.836-1.23-1.146a9.466 9.466 0 00-1.622-.775c-.356-.12-.303-.237.065-.341.354-.081 1.083-.195 1.826.137.648.29 1.287.682 1.804 1.314.132.151.237.325.329.51.194.39.318.817.352 1.253.006.216-.031.43-.053.645-.165.84-.602 1.507-1.075 2.06-.478.56-1.04.982-1.618 1.363a19.45 19.45 0 01-2.166 1.218c-.377.18-.764.347-1.164.49-.199.075-.414.13-.62.194l-.598.13c-1.746.39-3.555.593-5.365.44a11.953 11.953 0 01-3.273-.738 7.8 7.8 0 01-2.206-1.339c-.651-.58-1.183-1.33-1.446-2.199-.19-.673-.219-1.43.01-2.118.237-.685.679-1.275 1.206-1.728.232-.2.468-.385.732-.539.488-.287.854-.373 1.111-.405.263-.02.432.04.583.164.07.055.151.105.196.163.15.202-.2.493-.776.857-.858.528-1.58 1.26-1.777 2.04-.12.39-.098.774-.006 1.18.11.406.349.802.64 1.171.922 1.09 2.45 1.746 4.025 2.017.01.002.016.01.015.02z" fill="#231F20"/><path fill-rule="evenodd" clip-rule="evenodd" d="M40.243 69.594a.016.016 0 00.01.02c.875.365 1.848.603 2.843.72.365.045.735.039 1.104.053 1.302.057 2.633-.04 3.908-.364a7.879 7.879 0 001.626-.606 7.425 7.425 0 001.727-1.274c.16-.153.28-.066.303.204.035.274-.078.751-.45 1.09-1.319 1.148-2.951 1.683-4.576 1.842-.974.093-1.978.242-2.98.213-1.097-.033-2.2-.176-3.263-.518a7.973 7.973 0 01-1.878-.87 5.137 5.137 0 01-1.198-1.067c-.16-.221-.32-.441-.438-.688a1.753 1.753 0 01-.23-.873c.007-.487.193-.92.431-1.28.242-.362.545-.668.895-.916a3.13 3.13 0 01.484-.299c.664-.295.968-.18 1.117.082.035.06.077.12.094.179.047.202-.168.386-.488.562-.487.257-.946.677-1.195 1.113-.125.215-.18.425-.168.564a.435.435 0 00.052.185c.034.073.127.222.183.332.435.679 1.197 1.221 2.078 1.576a.016.016 0 01.01.02zm3.575 5.688a.018.018 0 00.014.02c.815.19 1.702.218 2.585.138.327-.022.644-.113.968-.166a14.084 14.084 0 003.369-1.02 7.6 7.6 0 001.344-.803c.546-.39.98-.872 1.428-1.321.15-.136.286-.052.35.206.03.127.055.314.017.508-.044.18-.13.378-.269.555a8.286 8.286 0 01-3.75 2.417c-.855.245-1.706.601-2.607.757-.985.178-1.998.241-3.01.14a8.041 8.041 0 01-1.83-.422 7.158 7.158 0 01-2.42-1.477c-.543-.498-1.042-1.06-1.4-1.717a5.892 5.892 0 01-.208-.445c-.18-.586-.077-.81.17-.992.056-.042.107-.09.161-.118.174-.091.437.084.666.403.336.475.63.923.963 1.334.335.41.73.763 1.177 1.062.654.439 1.463.76 2.267.92.01.002.016.011.015.021zm-3.44-38.138a.019.019 0 00.013-.02 7.69 7.69 0 01-.005-.943l.036-.504.06-.364c.035-.13.083-.258.123-.387.173-.52.577-.858 1.056-.957.483-.096.988.07 1.375.423.094.092.193.186.27.29.087.104.169.205.204.273.1.154.177.306.252.458.148.302.262.6.364.897.192.6.353 1.221.426 1.838.306 2.468-.065 4.956-1.145 7.19-.198.408-.43.802-.686 1.184-.13.192-.304.386-.457.576a5.556 5.556 0 01-.576.504c-.851.616-1.991.779-2.926.557-.84-.172-1.584-.528-2.26-.953a9.596 9.596 0 01-1.837-1.513c-.56-.6-.994-1.26-1.36-1.96-.36-.7-.658-1.44-.807-2.242-.147-.79-.173-1.68.214-2.502.183-.4.436-.758.803-1.06a2.04 2.04 0 011.338-.463c.968.032 1.696.615 2.246 1.147.567.552 1.037 1.179 1.447 1.83 1.45 2.321 2.261 4.925 3.03 7.425.504 1.614.945 3.272 1.226 4.966.132.848.233 1.703.26 2.563.026.86-.019 1.718-.1 2.568-.129 1.061-.286.891-.45 0l-.348-1.813a51.685 51.685 0 01-.486-2.522c-.28-1.647-.75-3.26-1.253-4.884-.49-1.642-.98-3.274-1.574-4.829-.595-1.55-1.32-3.07-2.363-4.248a4.767 4.767 0 00-.822-.76c-.283-.186-.586-.302-.843-.301-.257-.007-.481.085-.7.295a2.047 2.047 0 00-.495.834c-.242.777-.055 1.773.312 2.671.365.905.91 1.789 1.575 2.484a8.258 8.258 0 002.417 1.71c.882.382 1.855.564 2.617.208.421-.183.783-.505 1.082-.91.304-.439.572-.917.795-1.42.433-1.01.721-2.101.844-3.209a11.194 11.194 0 00-.09-3.319 8.88 8.88 0 00-.464-1.571 4.432 4.432 0 00-.35-.694c-.11-.17-.164-.236-.292-.308-.15-.086-.34.005-.399.16a.952.952 0 00-.073.232 2.784 2.784 0 00-.063.464c-.032.663.043 1.36.172 2.039.131.68.319 1.353.581 1.985.256.615.605 1.26 1.051 1.569.369.226.824.336 1.26.254.444-.075.878-.312 1.26-.625a5.395 5.395 0 001.655-2.474c.144-.445.148-.956.084-1.44-.07-.477-.243-.952-.529-1.195-.295-.245-.59-.242-.901.053-.314.3-.57.754-.762 1.217-.159.363-.252.732-.343 1.14-.103.395-.171.798-.237 1.2-.119.806-.19 1.617-.207 2.429a24.724 24.724 0 00.367 4.846c.125.705.28 1.388.456 2.085.32 1.296.597 2.128.746 2.73.157.6.182.975.136 1.31-.02.154-.023.347-.062.45-.1.34-.869-.56-1.559-2.501a24.914 24.914 0 01-1.362-9.218c.043-.8.118-1.604.252-2.405.075-.398.12-.803.217-1.202l.131-.607c.059-.23.127-.436.203-.647.156-.417.34-.827.612-1.242.27-.395.633-.882 1.42-1.144.376-.085.794-.093 1.148.079.373.122.64.351.856.592.43.493.591 1.011.703 1.494.137.728.154 1.395-.03 2.165a6.301 6.301 0 01-.875 1.855 6.435 6.435 0 01-1.38 1.487c-.552.421-1.241.782-2.055.846-.199.03-.409-.006-.61-.015-.203-.026-.399-.09-.595-.14-.184-.075-.361-.163-.539-.25a2.68 2.68 0 01-.513-.398c-.547-.572-.828-1.167-1.079-1.759a12.399 12.399 0 01-.846-3.635.02.02 0 01.013-.02zm24.644 1.496c-.014.11-.158.062-.38-.07-.072-.042-.24-.215-.246-.258a1.232 1.232 0 01-.016-.237c0-.043.282-.494.382-.652.094-.155.216-.28.35-.392a7.53 7.53 0 01.845-.652.737.737 0 01.221-.095 2.6 2.6 0 00.752-.33c.04-.024.086-.036.108-.095.03-.108.74-.39.848-.377.26.01.507-.003.759.03.035.004.068-.022.109.028.092.114.16.083.233.083a.913.913 0 01.308.043c.051.016.105.083.156.135.046.046.034.233.022.254-.037.062.002.146.011.222a.165.165 0 01-.046.14 2.176 2.176 0 01-.79.517c-.173.07-.347.151-.38.177-.073.049-.17.017-.247.06a6.7 6.7 0 00-.115.066c-.193.114-.388.305-.608.26a.31.31 0 01-.028-.008c-.03-.008-.049.008-.069.02-.17.108-.366.172-.556.256-.095.046-.177.113-.264.17-.016.011-.04.01-.06.014-.025.007-.053.009-.073.023-.202.146-.442.252-.612.444-.041.04-.333.133-.375.19-.024.029-.233-.01-.239.035m-5.99-13.853c-.015.112-.168.061-.4-.073-.074-.043-.25-.22-.256-.265a1.439 1.439 0 01-.022-.248c0-.045.27-.527.361-.702.086-.169.203-.305.33-.43.259-.251.536-.482.81-.703a.611.611 0 01.211-.109 1.75 1.75 0 00.678-.403c.032-.03.073-.047.078-.114.01-.11.563-.519.653-.54.232-.048.441-.13.661-.2.033-.008.048-.043.11-.009.14.078.181.02.243-.01.087-.043.176-.081.28-.1.053-.01.14.024.216.045.07.02.182.194.185.222.006.077.096.132.153.197.02.022.045.05.058.07.294.393-.437.947-.794 1.283-.063.06-.11.105-.125.123-.032.039-.093.039-.145.05-.025.007-.508.463-.53.472-.121.06-.203.176-.382.148-.035-.006-.054.014-.074.031-.177.141-.388.228-.589.33-.1.054-.182.133-.274.197-.016.013-.043.01-.064.016-.026.008-.057.01-.077.027-.2.174-.464.27-.64.471-.044.041-.358.131-.402.19-.026.03-.247-.012-.253.034" fill="#231F20"/><path fill-rule="evenodd" clip-rule="evenodd" d="M50.98 77.917a.014.014 0 00-.018.004c-.328.466-.716.936-1.232 1.302-.196.125-.379.275-.605.353a2.371 2.371 0 01-1.242.14 3.333 3.333 0 01-1.09-.375c-.29-.156-.57-.315-.837-.488-.168-.113-.34-.221-.497-.35-.15-.137-.276-.3-.38-.478-.065-.113.053-.205.243-.259.428-.114.832.135 1.209.367.417.259.836.476 1.252.636.382.138.74.033 1.09-.16.381-.207.72-.55 1.012-.955.183-.247.347-.522.504-.801.231-.43.466-.872.669-1.33.154-.356.259-.737.427-1.101.038-.08.067-.164.11-.242.183-.28.329-.313.59-.206.057.023.112.038.157.06.136.065.264.316.212.533-.147.65-.418 1.259-.744 1.902-.235.474-.5.958-.81 1.444a.014.014 0 01-.02.004zm-8.4-60.177c.069.098-.066.187-.31.268-.077.026-.314.03-.35.003-.07-.052-.14-.104-.192-.158-.028-.034-.218-.559-.31-.73a2.12 2.12 0 01-.162-.51c-.072-.345-.178-.684-.239-1.027a.632.632 0 010-.234c.05-.277.003-.541-.086-.797-.014-.043-.016-.09-.078-.122-.024-.011-.052-.056-.08-.12-.202-.469-.103-.997-.039-1.504.005-.036-.022-.067.032-.111.124-.106.08-.17.088-.25l.006-.083c.013-.167.1-.31.2-.444.044-.058.17-.065.194-.054.058.033.117-.02.17-.039.02-.006.043-.014.06-.016.03-.005.18.091.332.204.252.186.414.47.54.758.097.22.203.452.23.498.058.094.02.217.056.322.071.212.19.562.189.584.007.15.082.292-.026.462-.02.033-.009.062-.002.092.055.252.036.517.032.777-.003.133.027.262.027.395.001.023-.017.049-.024.074-.01.03-.025.062-.023.092.021.31-.038.626.008.932.01.071-.121.417-.105.497.008.046-.168.203-.138.241m-20.13 1.091c-.132-.017-.064-.194.13-.454.061-.082.298-.279.35-.288.098-.018.194-.034.273-.036.046.003.498.243.67.294.16.059.29.147.416.243l.8.558a.614.614 0 01.153.163c.15.23.363.376.6.49.038.018.071.05.135.027.1-.036.712.327.774.41.148.206.319.379.482.567.023.027.065.028.06.098-.012.16.063.177.12.223.08.064.156.137.219.23.03.046.03.143.039.225.008.075-.125.248-.15.261-.075.035-.096.142-.14.223a.947.947 0 01-.047.082c-.033.043-.718.076-.772.043l-.418-.172a9.548 9.548 0 00-.486-.186c-.052-.013-.079-.068-.112-.113-.014-.016-.676-.27-.699-.291-.116-.089-.271-.123-.324-.31-.01-.036-.04-.046-.065-.06-.225-.12-.408-.304-.596-.48-.098-.088-.214-.154-.319-.233-.018-.014-.025-.044-.039-.065-.017-.027-.029-.062-.052-.08-.249-.19-.437-.45-.699-.632-.064-.04-.197-.398-.266-.445-.042-.026.015-.285-.037-.292" fill="#231F20"/></g><defs><filter id="filter0_d_227_8" x="0" y="0" width="94.011" height="96.011" filterUnits="userSpaceOnUse" color-interpolation-filters="sRGB"><feFlood flood-opacity="0" result="BackgroundImageFix"/><feColorMatrix in="SourceAlpha" values="0 0 0 0 0 0 0 0 0 0 0 0 0 0 0 0 0 0 127 0" result="hardAlpha"/><feOffset dx="2" dy="4"/><feComposite in2="hardAlpha" operator="out"/><feColorMatrix values="0 0 0 0 0 0 0 0 0 0 0 0 0 0 0 0 0 0 1 0"/><feBlend in2="BackgroundImageFix" result="effect1_dropShadow_227_8"/><feBlend in="SourceGraphic" in2="effect1_dropShadow_227_8" result="shape"/></filter></defs></svg>