<svg xmlns="http://www.w3.org/2000/svg" preserveAspectRatio="none" width="358" height="15" fill="none"><path d="M142.75 5.486h0c-21.89-.443-43.78-1.178-65.654-1.912l-4.483-.15C49.243 2.64 25.89 1.88 2.548 1.5L2.572 0 2.55 1.5c-.325-.005-1.037.401-1.05 1.526l141.25 2.46zm0 0c22.748.454 45.559.316 68.38.177 48.268-.294 96.574-.589 144.396 4.734.366.046 1.05.604.968 1.717M142.75 5.486l213.744 6.628M2.524 4.601h.003c23.368.381 46.743 1.142 70.11 1.925l4.478.15c21.876.734 43.744 1.468 65.61 1.91 22.564.453 45.272.313 68.034.173 48.251-.297 96.746-.595 144.629 4.737M2.524 4.601l352.866 8.895h-.002M2.524 4.601c-.326-.005-1.036-.442-1.024-1.574l1.024 1.574zm352.864 8.895c.187.02.409-.04.633-.263.228-.228.431-.612.473-1.119m-1.106 1.382l1.106-1.382" fill="#FF0A0A" fill-opacity=".44" stroke="#000" stroke-width="3"/></svg>