<svg width="49" height="49" fill="none" xmlns="http://www.w3.org/2000/svg"><path d="M24.478 49c1.596 0 2.904-1.175 3.126-2.838 2.195-14.81 4.213-16.873 18.447-18.491 1.64-.2 2.905-1.575 2.905-3.17 0-1.62-1.242-2.95-2.883-3.194-14.145-1.973-15.897-3.702-18.469-18.491C27.316 1.176 26.052 0 24.478 0c-1.619 0-2.905 1.175-3.17 2.838-2.151 14.789-4.169 16.85-18.381 18.47C1.242 21.528 0 22.858 0 24.5c0 1.596 1.197 2.927 2.882 3.17 14.168 2.018 15.897 3.725 18.425 18.514.333 1.663 1.619 2.816 3.17 2.816z" fill="#0C0C0C"/></svg>