<svg width="67" height="68" fill="none" xmlns="http://www.w3.org/2000/svg"><path fill-rule="evenodd" clip-rule="evenodd" d="M15.439 37.71c-.254-.25-.51-.5-.768-.747-2.628-2.519-5.235-5.04-7.682-7.742-.593-.654-1.705-1.924-2.823-2.577-.8-.467-1.627-.662-2.383-.566-.482.062-1.187.305-1.54 1.229a2.86 2.86 0 00-.158.763c-.045.55-.001 1.54.013 1.676.195 1.993.39 3.899.749 5.87.33 1.815.554 3.644.909 5.456.53 2.71 1.213 5.32 2.209 7.901a1.862 1.862 0 003.473-1.34c-.917-2.377-1.541-4.78-2.029-7.276-.352-1.795-.574-3.608-.9-5.406a50.602 50.602 0 01-.492-3.47l.213.238c2.506 2.767 5.174 5.351 7.865 7.93 1.007.967 1.98 1.96 3.002 2.91.083.122.465.676.653.866.313.316.65.493.945.58.747.224 1.506.141 2.168-.696.496-.627.782-1.6.76-2.761-.029-1.596-.634-3.7-.763-4.67-.813-6.135-2.129-12.246-2.479-18.434a1.862 1.862 0 00-3.715.21c.354 6.281 1.678 12.486 2.504 18.714.044.331.15.803.269 1.341zM31.7 12.278c-2.11.56-4.224 1.047-5.92 2.497-1.773 1.517-2.675 3.722-2.996 6.178-.41 3.135.14 6.69.48 9.224.177 1.312.252 3.14.635 4.76.33 1.394.89 2.642 1.745 3.516 1.344 1.372 3.406 1.51 5.522.655 2.443-.99 4.877-3.272 5.538-4.603a1.86 1.86 0 00-3.332-1.658c-.42.844-2.053 2.183-3.603 2.811-.346.14-.689.244-1.013.27-.168.014-.337.038-.451-.078-.561-.574-.758-1.508-.921-2.45-.228-1.314-.291-2.687-.43-3.72-.305-2.266-.845-5.442-.48-8.244.197-1.503.64-2.904 1.727-3.832 1.26-1.078 2.883-1.312 4.453-1.728a1.86 1.86 0 00-.953-3.598z" fill="#000"/><path fill-rule="evenodd" clip-rule="evenodd" d="M31.558 22.085c-1.635.89-3.383 1.806-5.135 2.435a1.862 1.862 0 001.256 3.504c1.93-.693 3.86-1.69 5.659-2.67a1.862 1.862 0 00-1.78-3.27zm22.477.988c-1.359-1.644-2.794-3.26-4.311-4.739-.124-.12-1.654-1.38-2.563-1.85-.613-.318-1.157-.376-1.475-.345-.926.09-1.49.591-1.722 1.45-.222.822-.302 1.679-.302 2.553-1.376-2.58-2.635-5.234-3.4-8.028-.063-.231-.115-.34-.123-.359-.258-.57-.623-.763-.754-.839-.64-.376-1.217-.313-1.704-.094-.06.026-1.371.609-1.058 2.097.025.12.24.975.302 1.309.055.29.174.552.34.773 1.283 3.683 3.244 7.163 5.127 10.56.406.734.724 1.49.933 2.303.062.238.087.774.14 1.038.093.445.275.744.391.897.605.794 1.35.875 2.038.672.294-.087.884-.285 1.242-1.138.806-1.917.714-4.034.48-6.167-.068-.631-.154-1.262-.206-1.886 1.656 1.646 3.205 3.46 4.662 5.274.16.2 1.78 2.012 2.211 2.282 1.078.677 1.915.168 2.273-.135.546-.464.976-1.26 1.15-2.273.226-1.31.048-3.115.03-3.841-.117-4.885-.294-9.992-1.391-14.762a1.862 1.862 0 00-3.628.834c1.042 4.53 1.186 9.38 1.298 14.018.003.107.01.241.02.396z" fill="#000"/><path d="M62.372 6.004l.079.38.056.273c.655 3.165 1.313 6.345 1.747 9.647h0a.862.862 0 00.966.742L62.373 6.004zm0 0l-.314-.227m.314.227l-.314-.227m0 0a.859.859 0 01-.356-.743h0c.03-.588.042-1.173.018-1.779v-.002c-.006-.141-.025-.373-.04-.56l-.001-.025a8.768 8.768 0 01-.02-.264.946.946 0 01.097-.502.638.638 0 01.186-.211 1.06 1.06 0 01.421-.176h.003a1.28 1.28 0 01.502.048.643.643 0 01.281.174c.072.077.169.225.224.515h0c.272 1.406.556 2.784.839 4.15.665 3.225 1.317 6.383 1.75 9.678h0M62.058 5.777l3.904 10.303m0 0a.862.862 0 01-.741.966l.741-.966zm-4.31-13.73v-.003.003z" fill="red" stroke="#000" stroke-width="2"/><path fill-rule="evenodd" clip-rule="evenodd" d="M66.288 25.82a1.859 1.859 0 00-2.928-2.033c-.742.591-.88 1.313-.781 2.195a1.861 1.861 0 003.71-.161z" fill="#000"/><path d="M31.197 64.151l-.946-2.002a78.87 78.87 0 00-.324-.679l-.033-.064c-1.716-3.21-3.575-6.372-5.596-9.385l6.899 12.13zm0 0l.877-2.033m-.877 2.033l.877-2.033m0 0a44.552 44.552 0 001.035-2.697l.065-.183v-.002c.39-1.084.715-2.214 1.012-3.284h0c.582-2.105.905-4.236 1.194-6.325h0a.862.862 0 011.706.236h0c-.31 2.245-.653 4.422-1.24 6.548-.32 1.152-.656 2.311-1.05 3.407-.11.304-.496 1.366-.981 2.52-.5 1.19-1.056 2.355-1.493 2.937h0m-.248-3.158l.248 3.158m0 0c-.584.779-1.207.845-1.461.807m1.461-.807l-1.461.807m-2.485-3.864c-1.684-3.148-3.512-6.262-5.508-9.238a.862.862 0 011.43-.959l5.604 13.34c-.246-.358-.577-1.03-.885-1.708a59.316 59.316 0 01-.39-.88l-.026-.06c-.085-.196-.173-.399-.225-.495zm0 0l-.88.47.88-.47s0 0 0 0zm2.485 3.864c-.13-.02-.572-.158-.959-.72l.959.72z" fill="red" stroke="#000" stroke-width="2"/></svg>