<svg width="98" height="73" fill="none" xmlns="http://www.w3.org/2000/svg"><path d="M32.156 5.413c-6 9.2-4.667 22.134 2.266 20.8 5.334-.933 10.667-16 8-22.8-1.866-5.2-6-4.4-10.266 2zM69.623 7.68c-4.667 3.066-6.133 17.2-2.533 24.266 2.8 5.334 6.666 5.2 10.133-.4 3.733-5.866 2.933-16.933-1.467-21.6-3.333-3.6-3.866-3.733-6.133-2.266z" fill="#0C0C0C"/><path d="M.288 21.946c-1.867 7.334 5.6 25.734 14.8 36.267 2.8 3.333 8.4 7.333 13.733 10 8.4 4.133 9.734 4.4 22.934 4.4 12.666 0 14.8-.4 22.4-3.867 9.733-4.533 22.933-17.733 22.933-23.066 0-4.667-3.333-3.867-12.533 3.466-10.134 8-14.934 10.534-23.334 12.134-8 1.466-20.933-.4-28-4-8.4-4.267-20.8-20-25.733-32.667-2.533-6.4-5.867-7.733-7.2-2.667z" fill="#0C0C0C"/></svg>