<svg width="70" height="70" fill="none" xmlns="http://www.w3.org/2000/svg"><rect x="1.5" y="1.5" width="67" height="67" rx="33.5" fill="#C5A1FF"/><rect x="1.5" y="1.5" width="67" height="67" rx="33.5" stroke="#000" stroke-width="3"/><path d="M37.603 12.077c-.166.371-.237 2.948-.196 5.702l.088 5.066-1.723.438c-.979.198-1.882.367-2.04.296-.16-.07-.449-2.554-.731-5.48-.39-4.819-1.286-7.51-2.36-7.1-.206.035-.668 3.2-1.054 6.91l-.67 6.762-4.427 1.647c-3.996 1.394-4.35 1.617-3.36 2.25.564.444 2.398.755 4.037.788 1.663-.02 3.043.025 3.149.073.371.166.207 7.218-.172 8.067-.214.477-1.944 1.357-3.867 1.96-1.977.58-3.424 1.396-3.307 1.703.117.307 1.697.758 3.471.916 1.828.181 3.455.527 3.678.881.247.302.617 3.457.821 6.984.543 7.75 1.363 9.9 3.067 7.798.443-.565 1.07-4.102 1.392-8.094l.63-7.099 1.67-.462 1.647-.408.345 6.198c.225 4.618.587 6.37 1.329 6.703 1.431.64 2.558-2.165 3.57-8.838.42-2.93.862-5.34.992-5.346 1.816-.079 7.854-2.341 8.186-3.083.617-1.379-.385-1.7-4.661-1.385l-3.734.239-.226-4.046c-.124-2.283-.267-4.382-.278-4.642.012-.313 1.772-1.116 3.873-1.83 2.1-.715 3.96-1.602 4.103-1.92.616-1.378-1.152-1.978-4.673-1.644-1.994.19-3.81.268-4.022.173-.265-.118-.95-2.143-1.6-4.532-1.157-4.526-2.402-6.865-2.947-5.645zm-.107 18.022c.145.955.176 2.878.055 4.287-.159 2.347-.33 2.588-1.44 2.792-.642.158-1.421.191-1.633.096-.265-.118-.508-2.136-.609-4.471-.126-4.128-.132-4.258 1.208-4.55 1.882-.367 2.07-.22 2.42 1.846z" fill="#000"/></svg>