<svg width="70" height="70" fill="none" xmlns="http://www.w3.org/2000/svg"><rect x="1.5" y="1.5" width="67" height="67" rx="33.5" fill="#FF6258"/><rect x="1.5" y="1.5" width="67" height="67" rx="33.5" stroke="#000" stroke-width="3"/><path d="M37.895 13.82c-2.829 1.277-5.932 5.521-7.438 10.176l-.548 1.734-2.646-.046c-3.469-.045-5.34.913-6.48 3.377-3.058 6.8 3.24 20.855 12.047 26.925 3.149 2.19 3.56 2.008 6.617-2.556 5.385-8.031 7.94-13.37 9.629-19.942 3.286-13.097-2.601-23.548-11.18-19.669zm5.248 3.011c1.871.959 3.24 4.107 3.56 8.078.456 6.525-2.556 15.014-8.808 24.87-1.642 2.602-3.148 4.701-3.377 4.701-.958 0-5.932-6.16-7.62-9.4-5.34-10.223-4.655-18.027 1.414-15.7.822.32 1.232.868 1.415 2.146.913 5.43 3.65 9.72 6.206 9.72 1.643 0 2.693-1.506 2.693-3.88-.046-2.418-1.324-5.202-3.651-7.711l-1.917-2.1.502-2.099c1.278-5.02 4.655-9.218 7.484-9.31.457 0 1.415.32 2.1.685z" fill="#000"/></svg>