<svg width="37" height="35" fill="none" xmlns="http://www.w3.org/2000/svg"><path d="M19.548 4.403c-.877 1.4.38 5.41 2.152 6.887 1.36 1.105 2.367.598 2.631-1.342.305-2.045-1.193-4.947-2.899-5.677-1.3-.57-1.456-.541-1.884.132zM7.84 5.334c-.876 1.399.38 5.409 2.153 6.886 1.36 1.105 2.366.599 2.631-1.341.304-2.045-1.194-4.948-2.9-5.677-1.299-.57-1.455-.542-1.884.132z" fill="#000"/><path d="M2.882 16.707c.36 2.216 4.472 6.295 8.128 8.03 1.128.563 3.073.966 4.792 1.04 2.7.098 3.084.008 6.572-1.598 3.348-1.542 3.865-1.91 5.47-3.775 2.045-2.413 3.998-7.598 3.378-9.044-.542-1.265-1.33-.642-2.909 2.465-1.747 3.402-2.721 4.673-4.755 6.13-1.944 1.37-5.578 2.438-7.864 2.323-2.716-.135-7.823-2.89-10.6-5.724-1.413-1.426-2.449-1.382-2.212.154z" fill="#000"/></svg>