<svg width="145" height="152" fill="none" xmlns="http://www.w3.org/2000/svg"><path fill="#F3ABCB" d="M.576.92h143.482v149.353H.576z"/><g filter="url(#filter0_d_281_39)"><path d="M60.043 2.609c-.651 2.016-.651 1.97 1.954 24.713 1.024 9.19 1.768 16.881 1.629 17.022-.14.14-3.676-1.782-7.816-4.314-7.91-4.783-12.887-7.175-14.841-7.222-2.233 0-3.257 1.22-3.257 3.798 0 2.72.838 5.018 6.141 16.835 4.373 9.707 5.071 11.911 4.094 12.85-1.256 1.218-5.024 2.156-24.47 6.095-10.561 2.157-20.005 4.314-20.982 4.83-3.304 1.595-2.233 4.455 2.372 6.19 1.303.47 8.049 2.157 14.98 3.752 19.168 4.36 30.892 8.018 30.892 9.66 0 .375-1.628 2.391-3.629 4.548-7.211 7.738-11.63 13.037-11.956 14.303-.233.985-.093 1.454.697 2.11.838.703 1.21.703 3.025.188 1.116-.376 6.838-3.189 12.654-6.284 5.815-3.095 11.119-5.721 11.77-5.862 1.907-.469 2.466.282 2.652 3.283.093 1.5.465 9.191.837 17.116.93 18.57 1.489 21.477 4.14 21.477 3.071 0 5.397-4.83 12.236-25.744 2.931-8.91 5.583-16.507 5.909-16.835.465-.516.93-.235 2.372 1.407 3.722 4.267 14.004 14.537 15.213 15.193 2.838 1.501 4.42.188 3.955-3.282-.186-1.079-1.861-7.175-3.769-13.646-1.907-6.425-3.442-11.77-3.349-11.865.093-.093 2.931.61 6.234 1.548 7.955 2.204 20.795 4.877 25.448 5.205 3.396.282 3.815.235 4.605-.656 1.815-2.064.931-3.095-14.049-17.163-5.444-5.112-9.817-9.567-9.724-9.848.093-.281 2.699-2.016 5.769-3.798 7.676-4.502 12.096-7.831 13.026-9.848.745-1.594.745-1.688-.186-2.626-1.302-1.36-7.118-1.97-14.608-1.641-3.21.14-6.001.14-6.141-.047-.186-.14 2.14-2.86 5.164-5.956 8.7-9.05 16.051-17.631 17.679-20.773 1.303-2.439.512-4.361-1.768-4.361-.977 0-10.188 4.595-22.982 11.395-5.118 2.72-9.398 4.877-9.584 4.783-.186-.094-.233-5.018-.093-10.88.233-12.192-.14-14.349-2.28-14.583-1.581-.188-1.907.328-7.397 10.691-4.698 8.957-6.56 12.193-7.071 12.193-.186 0-1.117-1.407-2.14-3.19-.977-1.734-3.21-5.673-4.932-8.768C73.023 14.942 66.93 5.188 65.021 3.03 63.672 1.436 62.881.92 61.904.92c-1.116 0-1.395.281-1.86 1.688zm5.071 5.017c2.931 4.455 10.421 17.21 14.143 24.104 3.07 5.768 4.839 8.112 6.188 8.112 1.582 0 4.187-3.704 8.467-12.098 2.42-4.643 4.652-8.863 5.024-9.332.559-.75.652-.703.745.797.046.891.093 6.378.14 12.192v10.551l1.255.141c.931.094 5.537-2.063 16.609-7.831 8.421-4.408 15.539-8.019 15.818-8.019.279 0 .512.14.512.328 0 .891-11.631 14.115-18.051 20.633-3.908 3.94-7.072 7.41-7.072 7.785 0 1.594.977 1.735 12.143 1.735 6.094 0 11.165.187 11.305.422.651.985-4.28 4.595-12.934 9.472-5.21 2.908-6.559 4.268-6.048 6.237.187.844 4.141 4.924 11.864 12.333 6.373 6.05 11.584 11.208 11.584 11.442 0 1.079-6.281-.094-21.494-3.892-14.654-3.658-14.794-3.658-14.794-.563 0 .844 1.024 4.83 2.28 8.816 3.21 10.082 5.164 17.632 4.606 17.632-.698 0-5.397-4.642-10.98-10.879-5.769-6.471-6.7-7.175-8.002-6.471-1.442.797-2.419 3.141-6.746 16.647-5.908 18.382-9.072 26.494-10.42 26.494-.885 0-1.257-4.173-2.14-23.962-.373-8.675-.885-14.818-1.21-15.569-1.396-3.095-5.164-2.485-13.91 2.251-9.398 5.065-14.004 7.362-14.283 7.081-.326-.281 1.21-2.11 7.723-9.097 5.629-6.096 6.885-8.019 6.14-9.426-1.72-3.188-10.467-6.143-35.403-12.004C8.31 81.39 4.68 80.31 4.68 79.701c0-.516.14-.516 19.54-4.455 19.074-3.846 22.191-4.596 24.75-5.909 3.815-1.97 3.536-4.033-2.559-17.679-4.745-10.504-6.14-14.302-5.722-15.334.419-1.172 3.954.47 14.143 6.612 8.979 5.44 10.886 6.33 11.398 5.44.14-.188.046-1.5-.186-2.908-.745-4.83-3.862-38.78-3.722-40.703.093-.985.419-.657 2.791 2.86z" fill="#000"/></g><g filter="url(#filter1_d_281_39)"><path d="M81.038 49.352c-6.966 1.766-15.03 7.587-19.086 13.79-2.004 3.15-3.913 8.589-4.39 12.788-1.432 11.786 9.21 21.52 22.14 20.232 13.122-1.336 26.101-12.454 27.628-23.668 1.193-9.018-3.436-18.18-11.213-21.997-2.72-1.336-3.675-1.527-7.73-1.67-2.959-.095-5.63.096-7.349.525zm13.6 4.008c3.101 1.527 6.632 5.106 8.302 8.494 1.193 2.529 1.336 3.244 1.336 7.778 0 4.58-.143 5.248-1.384 7.873-1.622 3.292-6.298 8.207-10.45 10.927-14.553 9.543-31.826 3.817-31.826-10.498 0-6.203 3.197-14.362 7.11-18.275 2.099-2.052 9.304-5.917 12.978-6.967 3.96-1.097 11.023-.763 13.934.668z" fill="#000"/></g><path d="M87.48 65.195c-.907.334-.764 2.433.19 2.958 1.766.954 3.388-1.288 1.957-2.72-.62-.62-1.146-.668-2.148-.238zm-15.222 7.014c-.525 1.336.048 2.433 1.336 2.577 1.48.19 2.29-1.384 1.336-2.53-.763-.906-2.338-.906-2.672-.047zm14.888 7.3c.286 3.197.19 3.865-.573 4.819-.763.954-1.097 1.05-2.147.668-1.145-.477-2.91-2.29-4.008-4.151-.43-.716-.573-.716-1.05-.143-.859 1.002.955 4.39 2.959 5.63 3.292 2.052 6.489.573 7.157-3.292.286-1.861-.43-5.535-1.288-6.633-1.05-1.288-1.336-.43-1.05 3.102z" fill="#000"/><defs><filter id="filter0_d_281_39" x=".576" y=".921" width="139.893" height="150.776" filterUnits="userSpaceOnUse" color-interpolation-filters="sRGB"><feFlood flood-opacity="0" result="BackgroundImageFix"/><feColorMatrix in="SourceAlpha" values="0 0 0 0 0 0 0 0 0 0 0 0 0 0 0 0 0 0 127 0" result="hardAlpha"/><feOffset dy="4"/><feComposite in2="hardAlpha" operator="out"/><feColorMatrix values="0 0 0 0 0 0 0 0 0 0 0 0 0 0 0 0 0 0 0.25 0"/><feBlend in2="BackgroundImageFix" result="effect1_dropShadow_281_39"/><feBlend in="SourceGraphic" in2="effect1_dropShadow_281_39" result="shape"/></filter><filter id="filter1_d_281_39" x="57.432" y="48.803" width="50.084" height="51.474" filterUnits="userSpaceOnUse" color-interpolation-filters="sRGB"><feFlood flood-opacity="0" result="BackgroundImageFix"/><feColorMatrix in="SourceAlpha" values="0 0 0 0 0 0 0 0 0 0 0 0 0 0 0 0 0 0 127 0" result="hardAlpha"/><feOffset dy="4"/><feComposite in2="hardAlpha" operator="out"/><feColorMatrix values="0 0 0 0 0 0 0 0 0 0 0 0 0 0 0 0 0 0 0.25 0"/><feBlend in2="BackgroundImageFix" result="effect1_dropShadow_281_39"/><feBlend in="SourceGraphic" in2="effect1_dropShadow_281_39" result="shape"/></filter></defs></svg>