<svg width="70" height="70" fill="none" xmlns="http://www.w3.org/2000/svg"><rect x="1.5" y="1.5" width="67" height="67" rx="33.5" fill="#FFDC58"/><rect x="1.5" y="1.5" width="67" height="67" rx="33.5" stroke="#000" stroke-width="3"/><path d="M35.076 18.109c-.789.62-2.31 2.591-3.324 4.338l-1.86 3.212-6.085.45c-7.099.564-8.564 1.015-9.409 2.874-1.014 2.197-.225 3.719 3.944 7.944 2.198 2.141 4 4.282 4 4.677 0 .394-.676 2.986-1.464 5.69-.846 2.761-1.353 5.466-1.127 5.973.507 1.409 2.591.845 7.944-2.197 2.48-1.409 4.79-2.592 5.071-2.592.338 0 2.085.789 3.944 1.69 3.944 1.916 5.86 2.085 7.663.62 1.127-.902 1.352-1.69 1.521-5.296l.226-4.282 3.493-2.198c4.507-2.986 6.423-4.733 6.874-6.592.676-2.817-2.818-4.733-8.62-4.79-3.438 0-5.128-.845-5.579-2.647-.62-2.536-2.254-6.086-3.324-7.1-1.24-1.24-2.085-1.183-3.888.226zm1.916 7.606c0 .45-.395.789-.845.789-.958 0-1.014-.113-.507-1.353.394-1.014 1.352-.676 1.352.564zM26.85 31.856c0 .733-1.352 3.663-1.69 3.663-.677 0-3.944-2.817-3.944-3.38 0-.283.563-.564 1.296-.677 1.183-.169 4.338.113 4.338.394zm10.31.226c1.466.563 1.748 1.183 2.367 4.564.338 1.915.282 2.028-2.704 3.662l-3.1 1.634-2.253-1.521-2.31-1.522.845-2.422c1.521-4.395 3.662-5.691 7.156-4.395zm11.326 1.408c-.338.902-2.93 2.142-3.606 1.747-.226-.113-.564-.789-.733-1.409-.281-1.014 0-1.126 2.198-1.126 1.803 0 2.366.169 2.14.788zM27.413 44.76c0 .168-.225.45-.563.619-.282.169-.564.056-.564-.225 0-.339.282-.62.564-.62.338 0 .563.113.563.225z" fill="#000"/></svg>