<svg width="180" height="184" viewBox="0 0 180 184" fill="none" xmlns="http://www.w3.org/2000/svg">
<path d="M132.633 138.958L133.235 140.243L133.571 138.864C134.112 136.644 134.863 133.588 135.024 133.06L135.025 133.058C137.478 124.906 140.987 117.617 144.646 110.013C145.113 109.045 145.581 108.071 146.05 107.09C146.204 106.77 146.586 106.636 146.903 106.788C147.22 106.94 147.357 107.324 147.205 107.645C146.72 108.659 146.235 109.666 145.752 110.669C142.164 118.119 138.683 125.346 136.249 133.429C136.162 133.72 135.991 134.511 135.78 135.487C135.685 135.926 135.582 136.404 135.475 136.889C135.123 138.485 134.721 140.199 134.386 141.178L134.385 141.18C134.182 141.779 133.963 142.119 133.862 142.224C133.725 142.365 133.589 142.423 133.474 142.449L133.474 142.449L133.468 142.45C133.392 142.469 133.284 142.483 133.17 142.459C133.067 142.437 132.931 142.378 132.789 142.203L132.787 142.201C132.787 142.202 132.787 142.201 132.786 142.2C132.783 142.196 132.77 142.177 132.745 142.136C132.718 142.09 132.686 142.031 132.648 141.961C132.574 141.821 132.489 141.649 132.406 141.475C132.313 141.283 132.215 141.072 132.144 140.919C132.097 140.818 132.062 140.742 132.047 140.712C131.612 139.814 131.191 138.899 130.769 137.979C129.905 136.098 129.031 134.196 128.003 132.38L128.003 132.38C124.607 126.389 119.813 120.852 113.954 117.121C113.657 116.931 113.568 116.535 113.758 116.235C113.949 115.939 114.344 115.85 114.645 116.04C120.648 119.868 125.605 125.551 129.118 131.749L129.118 131.749C130.138 133.547 130.995 135.408 131.863 137.295C132.117 137.847 132.372 138.402 132.633 138.958Z" fill="black" stroke="black"/>
<path d="M29 66.2724C70.5687 38.0356 93.1057 56.8597 45.5273 78.299C95.9314 71.0794 138.156 97.2904 133.673 140" stroke="black" stroke-width="2"/>
</svg>
