<svg width="581" height="573" viewBox="0 0 581 573" fill="none" xmlns="http://www.w3.org/2000/svg">
<rect x="24" y="19" width="533" height="534" fill="white"/>
<path d="M23.0871 4C23.0871 63.7269 23.7235 87.7297 23.7235 151.249M23.7235 151.249C23.7235 214.768 23.6251 330.538 23.0871 408.348C22.5491 486.157 22.1316 561.893 22.1316 561.893C22.1316 572.883 20.9548 559.914 21.0406 554.066C21.1479 546.757 22.1775 338.787 22.1775 320.631C22.1775 302.476 23.0871 210.056 23.7235 151.249Z" stroke="black" stroke-width="6.28125" stroke-miterlimit="10" stroke-linecap="round" stroke-linejoin="round"/>
<path d="M468.596 553.327C555.952 553.327 543.751 553.327 572.453 553.327C571.96 553.613 567.509 554.707 565.672 554.928C563.377 555.205 503.151 555.054 490.298 555.054C446.298 555.054 247.532 554.021 234.523 554.021M468.596 553.327C468.596 553.327 257.902 555.054 224.299 555.054C190.695 555.054 198.643 555.101 127.702 555.054C74.6648 555.019 11.2447 555.054 6.97693 555.054C2.70918 555.054 4.28393 552.982 4.28393 552.982C34.1152 554.021 86.0327 554.021 154.219 554.021C177.715 554.021 205.198 554.021 234.523 554.021M468.596 553.327C404.735 553.327 314.227 554.021 234.523 554.021" stroke="black" stroke-width="6.28125" stroke-miterlimit="10" stroke-linecap="round" stroke-linejoin="round"/>
<path d="M557.218 287.36C557.218 356.866 558.635 400.598 558.635 446.044C558.635 491.491 557.911 568.483 557.911 568.483C557.911 568.483 556.245 571.727 556.245 565.387C556.245 559.047 557.335 513.975 557.218 449.201C557.101 384.426 557.106 316.551 557.218 287.36ZM557.218 287.36C557.218 254.594 556.461 187.664 556.506 150.42C556.556 108.657 556.506 48.5143 556.506 8.1875" stroke="black" stroke-width="6.28125" stroke-miterlimit="10" stroke-linecap="round" stroke-linejoin="round"/>
<path d="M15.5156 18.5121C46.1049 18.5121 72.7934 18.5121 88.5292 18.5121M88.5292 18.5121C104.265 18.5121 174.131 18.8173 203.715 18.8173M88.5292 18.5121C88.5292 18.5121 122.653 17.5621 142.66 17.5621C162.667 17.5621 203.715 18.8173 203.715 18.8173M577.687 18.8173C546.379 18.8173 560.855 18.5121 529.758 18.5121C512.032 18.5121 490.348 19.0208 459.262 18.8173M286.985 17.5621C308.499 17.5914 420.945 18.5665 459.262 18.8173M286.985 17.5621C264.736 17.5317 233.298 18.8173 203.715 18.8173M286.985 17.5621C286.985 17.5621 340.93 17.5621 371.142 17.5621M459.262 18.8173C459.262 18.8173 401.355 17.5621 371.142 17.5621M203.715 18.8173C221.847 18.8173 263.887 18.8173 286.985 18.8173C310.084 18.8173 352.714 17.9805 371.142 17.5621" stroke="black" stroke-width="6.28125" stroke-miterlimit="10" stroke-linecap="round" stroke-linejoin="round"/>
</svg>
