<svg width="48" height="49" viewBox="0 0 48 49" fill="none" xmlns="http://www.w3.org/2000/svg">
<path d="M44 24.5C44.0034 27.1343 43.4847 29.7432 42.4739 32.1759C41.4631 34.6085 39.9803 36.8168 38.111 38.673C36.2571 40.5237 34.0566 41.9909 31.6354 42.9907C29.2141 43.9905 26.6196 44.5034 24 44.5C12.954 44.5 4.00002 35.546 4.00002 24.5C3.99303 19.3718 5.96289 14.4382 9.50002 10.725C11.3664 8.75562 13.6149 7.18776 16.1081 6.1174C18.6014 5.04704 21.2868 4.49668 24 4.50002C26.6196 4.49662 29.2141 5.0095 31.6354 6.00933C34.0566 7.00916 36.2571 8.47634 38.111 10.327C39.9803 12.1832 41.4631 14.3915 42.4739 16.8242C43.4847 19.2568 44.0034 21.8657 44 24.5Z" stroke="black" stroke-width="3" stroke-linecap="round" stroke-linejoin="round"/>
<path d="M44 24.5C41.082 24.5 33.032 23.4 25.827 26.563C18 30 12.333 35.332 9.86304 38.647" stroke="black" stroke-width="3" stroke-linecap="round" stroke-linejoin="round"/>
<path d="M16.5 5.9541C19.63 8.8431 26.46 16.1981 29 23.5001C31.54 30.8021 32.48 39.7801 33.06 42.3351" stroke="black" stroke-width="3" stroke-linecap="round" stroke-linejoin="round"/>
<path d="M4.15405 22.0002C7.93205 22.2282 17.9331 22.4332 24.3331 19.7002C30.7331 16.9672 36.2401 11.9402 38.1291 10.3452M5.50005 32.1132C7.26237 36.3791 10.4408 39.9075 14.5001 42.1042" stroke="black" stroke-width="3" stroke-linecap="round" stroke-linejoin="round"/>
<path d="M4.00002 24.5C3.99303 19.3718 5.96289 14.4382 9.50002 10.725C11.3664 8.75561 13.6149 7.18776 16.1081 6.1174C18.6014 5.04704 21.2868 4.49668 24 4.50002M32 6.16402C34.2776 7.16055 36.3499 8.57225 38.111 10.327C39.9803 12.1832 41.4631 14.3915 42.4739 16.8242C43.4847 19.2568 44.0034 21.8657 44 24.5C44 26.962 43.555 29.321 42.74 31.5M24 44.5C26.6196 44.5034 29.2141 43.9905 31.6354 42.9907C34.0566 41.9909 36.2571 40.5237 38.111 38.673" stroke="black" stroke-width="3" stroke-linecap="round" stroke-linejoin="round"/>
</svg>
