<svg width="95" height="97" viewBox="0 0 95 97" fill="none" xmlns="http://www.w3.org/2000/svg">
<g filter="url(#filter0_d_227_8)">
<rect x="1" y="1" width="90.0111" height="90.0111" rx="45.0056" fill="#FFDC58" stroke="black" stroke-width="2"/>
<path fill-rule="evenodd" clip-rule="evenodd" d="M44.7976 73.5652C44.797 73.5561 44.7897 73.549 44.7807 73.5488C43.6101 73.5196 42.412 73.4053 41.2331 73.0748C40.8022 72.9542 40.3621 72.8355 39.948 72.6353C39.2188 72.2884 38.5411 71.7923 38.0077 71.1755C37.7385 70.8628 37.5079 70.5495 37.3015 70.1783C37.0851 69.8072 36.9589 69.3764 36.9086 68.9443C36.8576 68.5594 36.8986 68.1634 36.9931 67.7898C37.0957 67.4149 37.2785 67.0736 37.4917 66.7615C38.0643 65.9757 39.0348 65.5051 39.9406 65.5915C40.2247 65.6095 40.1843 65.7562 40.0021 65.9788C39.8075 66.1759 39.5452 66.5775 39.2536 66.7976C38.9732 66.9878 38.811 67.2744 38.63 67.4914C38.4628 67.7282 38.3552 67.9881 38.3074 68.2523C38.2359 68.5122 38.2228 68.7913 38.2782 69.0817C38.3354 69.3708 38.479 69.6586 38.6742 69.9987C38.9117 70.376 39.2387 70.7043 39.616 70.9723C40.0003 71.2334 40.4292 71.436 40.8713 71.6132C41.8486 72.0005 42.9477 72.1696 44.0581 72.2399C44.7438 72.2791 45.4401 72.289 46.1252 72.2498C47.1653 72.1889 48.2141 72.0596 49.1995 71.7543C49.9716 71.5386 50.6866 71.2091 51.3686 70.8336C51.5203 70.7522 51.6614 70.6614 51.8094 70.5737C52.359 70.248 52.5654 70.1889 52.8153 70.2784C52.8712 70.2983 52.9353 70.3095 52.98 70.335C53.1212 70.4046 53.0167 70.7211 52.6369 71.0817C52.0705 71.6076 51.409 72.0739 50.6891 72.4482C50.3285 72.6322 49.958 72.8112 49.5725 72.948C49.1833 73.0705 48.7867 73.1737 48.3869 73.2545C47.2068 73.5033 45.9996 73.5833 44.8149 73.5815C44.8057 73.5815 44.7981 73.5744 44.7976 73.5652V73.5652Z" fill="#231F20"/>
<path fill-rule="evenodd" clip-rule="evenodd" d="M48.0057 74.0073C48.0041 74.0028 47.9993 74.0002 47.9947 74.0014C47.3601 74.1694 46.7145 74.2894 46.067 74.3885C45.8276 74.4208 45.5932 74.4519 45.3533 74.4842C44.5077 74.5451 43.6573 74.5265 42.8192 74.409C42.4462 74.3599 42.0744 74.294 41.7076 74.2162C41.2426 74.0987 40.7539 73.9794 40.3573 73.6735C40.2311 73.584 40.3312 73.469 40.5102 73.3981C40.6936 73.3241 40.9299 73.3061 41.1661 73.3813C41.9917 73.6909 42.8969 73.8302 43.8251 73.9116C44.3834 73.9539 44.9672 73.8923 45.5348 73.8103C46.1627 73.7388 46.7856 73.6095 47.403 73.4553C47.7835 73.3645 48.1571 73.2396 48.5314 73.1239L49.3744 72.8249C49.6498 72.713 49.9233 72.5942 50.1932 72.4718C50.606 72.2678 50.9896 72.0266 51.3893 71.8121L51.6473 71.6611C51.9768 71.4826 52.1074 71.469 52.2354 71.5231C52.2647 71.5361 52.2988 71.5448 52.3212 71.561C52.3952 71.6126 52.3026 71.7556 52.0881 71.9433C51.4558 72.5066 50.693 72.9704 49.8792 73.3328C49.2843 73.6176 48.6555 73.837 48.0168 74.0132C48.0121 74.0144 48.0073 74.0119 48.0057 74.0073V74.0073Z" fill="#231F20"/>
<path fill-rule="evenodd" clip-rule="evenodd" d="M49.2373 78.0023C49.2421 78.0061 49.249 78.006 49.2536 78.002C49.4522 77.8302 49.6226 77.5883 49.779 77.335C49.84 77.2436 49.8623 77.1273 49.9195 77.0303C50.1148 76.6778 50.287 76.2967 50.4579 75.9026C50.54 75.731 50.5997 75.5476 50.6668 75.3648C50.7576 75.1329 50.816 74.8693 51.0771 74.6797C51.1517 74.6213 51.2375 74.7381 51.3159 74.8799C51.3905 75.0297 51.4812 75.1541 51.4576 75.2747C51.3445 75.6638 51.2954 76.1687 51.015 76.6057C50.8633 76.8718 50.8011 77.1882 50.6656 77.4792C50.522 77.8 50.3292 78.109 50.1135 78.4024C49.9581 78.5715 49.8219 78.7512 49.6329 78.8917V78.8917C49.4977 79.0017 49.3524 79.0987 49.199 79.1816L49.1959 79.1833C49.0467 79.279 48.8788 79.3275 48.7159 79.3891C48.591 79.4469 48.466 79.486 48.3361 79.5221C48.2086 79.5557 48.0743 79.6166 47.9425 79.6272C47.8847 79.6346 47.8275 79.6359 47.7685 79.6309C47.5503 79.6035 47.4862 79.5376 47.4701 79.3182C47.4657 79.2716 47.4589 79.2262 47.4589 79.1839C47.4595 79.0508 47.5583 78.8836 47.6852 78.8233C48.0737 78.6306 48.3628 78.5672 48.6457 78.4292C48.8318 78.3067 49.045 78.2054 49.2195 78.0041C49.224 77.9988 49.2319 77.998 49.2373 78.0023V78.0023Z" fill="#231F20"/>
<path fill-rule="evenodd" clip-rule="evenodd" d="M39.4616 67.0463C39.4564 67.0389 39.4468 67.0361 39.4384 67.0395C39.2854 67.1026 39.1066 67.1729 38.9517 67.2928C38.8945 67.3382 38.8603 67.4029 38.8031 67.4495C38.5942 67.613 38.3884 67.8045 38.2367 68.0308C38.1807 68.1303 38.1459 68.2478 38.1528 68.3503C38.149 68.4964 38.2013 68.5748 38.0931 68.6873C38.0545 68.7252 37.8146 68.8378 37.5466 68.8664C37.288 68.9099 36.9498 68.7862 36.9231 68.6146C36.8528 68.3074 36.9131 68.0389 37.007 67.8151C37.0978 67.5857 37.2383 67.3973 37.4074 67.2381C37.6138 67.056 37.7051 66.8054 37.8854 66.6121C38.0856 66.4044 38.307 66.2185 38.5594 66.0662C38.7073 65.9674 38.8826 65.9002 39.048 65.8263V65.8263C39.3078 65.7178 39.5922 65.6704 39.8729 65.6492C39.8763 65.6489 39.8796 65.6487 39.883 65.6485C39.9967 65.6466 40.113 65.6192 40.2317 65.6143C40.348 65.6199 40.4711 65.6261 40.5929 65.646C40.6489 65.6497 40.6899 65.6802 40.7347 65.7081C40.8901 65.8312 40.8938 65.9388 40.7825 66.1607C40.7571 66.2117 40.7334 66.2621 40.7048 66.3093C40.6091 66.4647 40.4655 66.5754 40.3542 66.6351C40.0085 66.8303 39.9905 66.8875 39.8444 66.9217C39.7533 66.9421 39.6223 66.9821 39.4865 67.0524C39.4779 67.0569 39.4672 67.0543 39.4616 67.0463V67.0463Z" fill="#231F20"/>
<path fill-rule="evenodd" clip-rule="evenodd" d="M28.784 56.592C28.7872 56.5883 28.7872 56.5827 28.784 56.579C27.2967 54.8537 25.9564 52.9852 24.8847 50.961C24.6777 50.5973 24.498 50.2193 24.3215 49.8395C24.1344 49.4646 23.9659 49.0822 23.8223 48.6881C22.7256 45.9464 22.2773 42.9529 22.4962 40.0266C22.5316 39.3763 22.6398 38.7304 22.7181 38.0844C22.8574 37.4491 22.9351 36.8 23.1185 36.1808C23.4847 34.5712 24.1101 32.971 25.0793 31.6194C25.384 31.1998 25.4113 31.3079 25.2634 31.7238C25.1092 32.1398 24.8506 32.8926 24.5074 33.7468C24.3557 34.1267 24.2214 34.514 24.1014 34.9044C23.9802 35.293 23.8981 35.7021 23.7825 36.0962C23.6693 36.4929 23.5674 36.8914 23.4996 37.298C23.4287 37.7033 23.3218 38.1031 23.2789 38.5128C23.019 40.1404 22.9998 41.8015 23.1583 43.4522C23.3467 45.4323 23.9634 47.4397 24.8238 49.2849C25.7595 51.3222 26.9581 53.2464 28.3675 55.0114C29.2236 56.1062 30.1493 57.15 31.1228 58.146C32.5907 59.6629 34.1654 61.0928 35.7707 62.4475C37.0196 63.5013 38.2904 64.4767 39.5468 65.5013C39.8223 65.7288 40.0995 65.9414 40.3681 66.1833C41.3734 67.0661 41.6451 67.4092 41.7445 67.7157C41.7682 67.7847 41.8079 67.8668 41.8135 67.9141C41.8297 68.0757 41.3808 67.7648 40.6305 67.1543C38.3892 65.3595 35.9628 63.5006 33.6563 61.4621C31.9475 59.9483 30.2902 58.347 28.7841 56.6051C28.7808 56.6013 28.7808 56.5958 28.784 56.592V56.592Z" fill="#231F20"/>
<path fill-rule="evenodd" clip-rule="evenodd" d="M25.808 30.4392C25.8182 30.4437 25.8302 30.4406 25.8368 30.4317C26.8129 29.1305 27.9615 27.9854 29.2143 26.9803C30.5012 26.0117 31.8789 25.1774 33.3343 24.5091C36.255 23.211 39.4431 22.5035 42.6535 22.6042C43.8248 22.6403 44.9936 22.7752 46.1238 22.9996C46.6933 23.1121 47.2609 23.2476 47.8235 23.4136C48.3862 23.5765 48.9364 23.8146 49.4897 24.0179C51.407 24.856 53.1129 26.1466 54.4732 27.7052C55.8397 29.2632 56.8698 31.0773 57.5761 32.9865C59.011 36.8087 59.2864 40.9579 58.7517 44.9219C58.5379 46.6881 58.1624 48.4307 57.6986 50.1398C57.2503 51.8556 56.6616 53.523 56.0362 55.16C55.2298 57.2638 54.2625 59.3067 53.1838 61.2843C52.1139 63.2669 50.8978 65.1662 49.578 66.9784C48.7505 68.1068 48.7095 67.8444 49.177 66.7428C49.4163 66.1963 49.7545 65.4229 50.1866 64.5109C50.6031 63.5895 51.1192 62.5333 51.7085 61.4074C52.7592 59.4124 53.6588 57.349 54.5198 55.28C55.3629 53.2022 56.0828 51.0773 56.6261 48.9113C57.7228 44.5905 58.0616 40.0496 57.0172 35.717C56.6989 34.4295 56.2519 33.1606 55.6625 31.9545C55.0707 30.749 54.3041 29.6287 53.4095 28.6309C52.5118 27.6368 51.4754 26.759 50.3047 26.1099C49.1359 25.4596 47.8944 24.9617 46.5714 24.6552C40.7834 23.2066 34.3315 24.713 29.6955 28.519C28.2786 29.6915 27.0471 31.0941 26.1431 32.6875C25.9404 33.0972 25.7228 33.5013 25.5295 33.9147L25.0539 35.2004C24.8164 36.0956 24.569 36.9921 24.4484 37.9122L24.362 38.4313L24.3184 38.9561L24.2351 40.0061L24.242 41.0599L24.2476 41.5865L24.2967 42.1118C24.3806 43.5181 24.7051 44.9001 25.1043 46.251C25.5121 47.6039 26.1008 48.8964 26.7412 50.1565C27.4114 51.403 28.1711 52.5998 28.9973 53.7468C31.5948 57.3079 34.7928 60.2666 38.0716 63.1631C38.7965 63.8015 39.5189 64.4114 40.2407 65.0754C42.9221 67.5093 43.6507 68.578 43.7906 69.4434C43.8211 69.6411 43.854 69.8892 43.8378 70.0017C43.8217 70.0993 43.7608 70.09 43.6563 70.0023C43.5469 69.9141 43.4331 69.7431 43.2006 69.523C42.7735 69.0766 42.0635 68.3816 41.0806 67.5193C38.135 64.9909 34.9656 62.4195 32.0666 59.4447C29.1733 56.4804 26.4652 53.109 24.6852 49.1475C24.0219 47.6828 23.5251 46.1329 23.1807 44.5457C22.8295 42.9561 22.7399 41.3117 22.7903 39.6834C22.8506 38.049 23.1751 36.4438 23.5985 34.8777C24.0896 33.2925 24.836 31.7961 25.7787 30.4475C25.7853 30.4381 25.7975 30.4347 25.808 30.4392V30.4392Z" fill="#231F20"/>
<path fill-rule="evenodd" clip-rule="evenodd" d="M41.9001 72.5338C41.8992 72.5431 41.9056 72.5515 41.9147 72.5532C43.4947 72.8402 45.1743 72.7917 46.8212 72.5235C47.4199 72.4184 48.0266 72.2518 48.6073 72.1243C49.584 71.8713 50.5793 71.4063 51.4876 70.8673C52.3941 70.3196 53.2396 69.6487 53.8289 68.8337C54.3257 68.0989 54.4419 67.2179 54.0011 66.4961C53.727 66.0379 53.2669 65.6599 52.7708 65.3497C52.2641 65.0513 51.7239 64.7796 51.1494 64.5751C50.7926 64.4551 50.846 64.3382 51.2135 64.2338C51.5678 64.1529 52.2971 64.0392 53.04 64.3705C53.6884 64.6602 54.3269 65.0532 54.8442 65.6848C54.9757 65.8363 55.0814 66.0101 55.1728 66.1943C55.3672 66.5858 55.4908 67.0123 55.5255 67.4479V67.4479C55.5311 67.6643 55.4938 67.8782 55.4715 68.0926C55.3073 68.9332 54.8703 69.6003 54.3965 70.1529C53.9191 70.7131 53.3571 71.1352 52.7789 71.5163C52.0851 71.9664 51.3658 72.3724 50.6129 72.7342C50.2361 72.9145 49.8494 73.0805 49.4485 73.2241C49.2501 73.2993 49.035 73.3541 48.8299 73.4181L48.2312 73.5486C46.4854 73.9372 44.6757 74.1405 42.8659 73.9882C41.7537 73.8906 40.6471 73.6574 39.5933 73.2496C38.7975 72.9319 38.0472 72.4818 37.3869 71.9111C36.736 71.3304 36.2038 70.5813 35.9409 69.7122C35.7506 69.0389 35.722 68.2816 35.9514 67.594C36.1877 66.9089 36.6297 66.3189 37.1569 65.8663C37.3894 65.6655 37.625 65.4815 37.8892 65.3273C38.3767 65.0395 38.7428 64.9543 39.0002 64.922C39.2626 64.9015 39.4317 64.9612 39.5834 65.0861C39.6524 65.1414 39.7344 65.1906 39.7792 65.249C39.9297 65.451 39.5796 65.742 39.0033 66.1057C38.1448 66.6341 37.423 67.3659 37.2259 68.1467C37.1065 68.5359 37.1283 68.9201 37.2197 69.3261C37.3303 69.7321 37.5685 70.1281 37.8594 70.4974C38.7819 71.5871 40.3101 72.2429 41.8853 72.5144C41.8945 72.516 41.901 72.5245 41.9001 72.5338V72.5338Z" fill="#231F20"/>
<path fill-rule="evenodd" clip-rule="evenodd" d="M40.2434 69.5938C40.2406 69.6018 40.2445 69.6105 40.2523 69.6138C41.1278 69.9786 42.1007 70.2172 43.0958 70.3341C43.4613 70.3789 43.8313 70.3727 44.1999 70.387C45.5018 70.4442 46.8328 70.3478 48.1079 70.0227C48.6718 69.8772 49.2263 69.6776 49.7343 69.4165C50.3877 69.0746 50.9565 68.6332 51.4613 68.1427C51.6217 67.9903 51.7411 68.0774 51.7635 68.3472C51.7995 68.6214 51.6864 69.0982 51.3146 69.4364C49.9954 70.5847 48.3628 71.12 46.7377 71.2791C45.7641 71.3717 44.7601 71.521 43.7585 71.4924C42.6612 71.4594 41.5577 71.3164 40.4952 70.9739C39.8431 70.7637 39.2052 70.4827 38.6165 70.1035C38.1732 69.8131 37.7591 69.4606 37.4185 69.0367C37.2593 68.8159 37.0995 68.5959 36.9808 68.3491C36.8446 68.1277 36.7452 67.7752 36.7514 67.4756C36.7582 66.9888 36.9441 66.5567 37.1822 66.1961C37.4241 65.8343 37.7274 65.5284 38.0775 65.2797C38.2291 65.1666 38.3871 65.0665 38.5611 64.9813C39.2251 64.686 39.5285 64.8004 39.6777 65.0628C39.7131 65.1237 39.7548 65.1821 39.7722 65.2418C39.8188 65.4439 39.6037 65.6285 39.2842 65.8044C38.7968 66.0612 38.3379 66.4815 38.0886 66.9167C37.9637 67.1318 37.909 67.3419 37.9214 67.4805C37.9233 67.5527 37.945 67.608 37.973 67.6664C38.0066 67.7385 38.0998 67.8884 38.1564 67.9978C38.5911 68.6768 39.3525 69.2192 40.2342 69.5737C40.2422 69.5769 40.2462 69.5857 40.2434 69.5938V69.5938Z" fill="#231F20"/>
<path fill-rule="evenodd" clip-rule="evenodd" d="M43.8177 75.2821C43.8165 75.2914 43.8225 75.3002 43.8317 75.3023C44.6473 75.4917 45.5336 75.52 46.4174 75.4403C46.7438 75.4179 47.0608 75.3272 47.3853 75.2737C48.5336 75.0866 49.6682 74.7291 50.7537 74.2535C51.2299 74.0322 51.6856 73.7605 52.0984 73.4515C52.6437 73.0617 53.0776 72.5786 53.5258 72.1298C53.6769 71.9942 53.8118 72.0775 53.8759 72.3355C53.9057 72.463 53.9312 72.6495 53.8933 72.8435C53.8485 73.0231 53.7621 73.2215 53.6241 73.3993C52.5889 74.5531 51.3008 75.38 49.874 75.8158C49.0192 76.0608 48.1681 76.417 47.2666 76.573C46.2825 76.7515 45.2691 76.8143 44.2576 76.7129C43.6371 76.647 43.0123 76.4997 42.4273 76.2914C41.5402 75.9656 40.7021 75.4658 40.0071 74.8143C39.4643 74.3157 38.9651 73.7549 38.6064 73.0965C38.533 72.9498 38.4609 72.8056 38.3993 72.652C38.2197 72.0657 38.3223 71.8413 38.5684 71.6598C38.625 71.6181 38.676 71.5696 38.7301 71.5423C38.9035 71.4509 39.1671 71.6256 39.3959 71.9445C39.7323 72.4201 40.0251 72.8683 40.3589 73.2793C40.694 73.689 41.0888 74.0421 41.5364 74.3411C42.1896 74.7795 42.9991 75.1007 43.803 75.2616C43.8125 75.2635 43.8189 75.2725 43.8177 75.2821V75.2821Z" fill="#231F20"/>
<path fill-rule="evenodd" clip-rule="evenodd" d="M40.3782 37.1435C40.3865 37.141 40.392 37.133 40.3914 37.1243C40.37 36.8175 40.3685 36.5029 40.3856 36.1811L40.4223 35.6769L40.4826 35.3132C40.5174 35.1821 40.5646 35.0552 40.6051 34.9259C40.7779 34.4062 41.182 34.068 41.6607 33.9691C42.1444 33.8734 42.6486 34.0394 43.0365 34.3925C43.1304 34.4839 43.2286 34.5778 43.3063 34.6816C43.3927 34.786 43.4748 34.8874 43.5102 34.9551C43.6091 35.1093 43.6874 35.261 43.762 35.4127C43.91 35.7148 44.0238 36.0133 44.1257 36.3104C44.3178 36.9097 44.4788 37.5314 44.5516 38.1482C44.8581 40.6157 44.4869 43.1037 43.407 45.3387C43.2087 45.7459 42.9768 46.1401 42.7207 46.5218C42.5908 46.7139 42.4167 46.9079 42.2637 47.0981C42.0816 47.2728 41.8963 47.4512 41.6881 47.6017C40.8369 48.2184 39.6968 48.3807 38.7623 48.1594C37.9224 47.9871 37.1776 47.6309 36.5019 47.2057C35.8248 46.7755 35.2162 46.275 34.6654 45.6931C34.1058 45.0925 33.6713 44.4335 33.3057 43.7335C32.9445 43.0328 32.6473 42.2924 32.4981 41.491C32.3514 40.7002 32.3247 39.8118 32.712 38.9893C32.8954 38.5896 33.1478 38.2315 33.5146 37.9293C33.8739 37.6266 34.3763 37.4512 34.8531 37.4662C35.8205 37.4985 36.5491 38.081 37.0987 38.6126C37.6663 39.1653 38.1357 39.7919 38.546 40.4429C39.9964 42.7643 40.8071 45.3679 41.5768 47.8678C42.0797 49.4823 42.5211 51.1404 42.8021 52.8339C42.9339 53.6819 43.0353 54.5373 43.0614 55.3965C43.0875 56.2563 43.0434 57.1149 42.9625 57.9654C42.8332 59.026 42.6765 58.8563 42.5118 57.9641C42.421 57.4879 42.3017 56.8699 42.1643 56.1525C42.0001 55.4121 41.8354 54.5591 41.6781 53.6303C41.3971 51.9828 40.9277 50.3701 40.4248 48.7462C39.9349 47.1037 39.4456 45.4718 38.8512 43.9175C38.2557 42.3676 37.5314 40.8476 36.4876 39.6688C36.2302 39.376 35.9392 39.0975 35.6663 38.9097C35.3828 38.7226 35.08 38.607 34.8233 38.6076C34.5659 38.6008 34.3415 38.6928 34.1239 38.9029C33.9063 39.1143 33.7216 39.4307 33.6284 39.7372C33.3865 40.5137 33.573 41.5103 33.9398 42.408C34.3048 43.3132 34.8506 44.1967 35.5152 44.8917C36.2103 45.5955 37.0465 46.201 37.9324 46.6026C38.8139 46.9843 39.7875 47.1659 40.5491 46.8096C40.97 46.6269 41.3318 46.3048 41.6309 45.9007C41.9349 45.4612 42.2034 44.9825 42.426 44.4802C42.8587 43.4693 43.1472 42.3788 43.2696 41.271C43.4033 40.1631 43.3753 39.036 43.1795 37.9523C43.0688 37.4158 42.9227 36.8867 42.7157 36.3807C42.6131 36.1314 42.4969 35.8927 42.3657 35.6875C42.2569 35.5165 42.2016 35.4512 42.0741 35.3785C41.9237 35.2933 41.7347 35.3835 41.675 35.5395C41.642 35.6129 41.6141 35.6962 41.6023 35.7714C41.5749 35.8958 41.5444 36.0767 41.5388 36.2352C41.5065 36.8979 41.5817 37.5949 41.7111 38.2738C41.8422 38.9533 42.03 39.6272 42.2923 40.2588C42.5485 40.8743 42.8973 41.5196 43.343 41.828C43.7117 42.0537 44.1668 42.1643 44.6038 42.0816C45.0465 42.007 45.481 41.7696 45.8621 41.4568C46.62 40.8246 47.2274 39.9212 47.5183 38.9825C47.6619 38.538 47.6663 38.0269 47.6023 37.5426C47.5326 37.0658 47.3585 36.5914 47.0732 36.3484C46.7779 36.1034 46.4832 36.1065 46.1717 36.4006C45.8584 36.7009 45.6029 37.1547 45.4101 37.6185C45.251 37.9809 45.1584 38.3502 45.067 38.7581C44.9644 39.1528 44.896 39.5557 44.8301 39.9579C44.7114 40.7636 44.6399 41.575 44.6225 42.3869C44.5858 44.0108 44.7089 45.6334 44.9905 47.233C45.1148 47.938 45.2696 48.6207 45.4456 49.3182C45.7664 50.6138 46.043 51.4463 46.1922 52.0487C46.3489 52.6486 46.3738 53.0229 46.3284 53.3586C46.3073 53.5115 46.3048 53.7049 46.2662 53.8075C46.1668 54.1482 45.3971 53.2479 44.707 51.307C43.7079 48.4348 43.2081 45.2908 43.3449 42.0885C43.3878 41.289 43.463 40.4851 43.5973 39.6844C43.6725 39.2859 43.7173 38.8805 43.8136 38.482L43.9454 37.8746C44.0039 37.6452 44.0723 37.4388 44.1481 37.2281C44.3042 36.8109 44.4888 36.4006 44.7599 35.9859C45.0309 35.5905 45.3927 35.1037 46.1804 34.842C46.5559 34.7568 46.9737 34.7487 47.3275 34.9209C47.7011 35.0434 47.9672 35.2722 48.1842 35.5128C48.6144 36.0064 48.7754 36.5243 48.8867 37.0067C49.0241 37.7347 49.0415 38.4018 48.8568 39.1721C48.6629 39.8734 48.3551 40.4702 47.9821 41.0266C47.6054 41.5787 47.1571 42.0854 46.6019 42.5143C46.0499 42.9352 45.361 43.2958 44.5466 43.3605C44.3483 43.3897 44.1382 43.3543 43.9361 43.3449C43.7341 43.3194 43.5382 43.2554 43.3418 43.2044C43.1577 43.1298 42.9806 43.0415 42.8034 42.9545C42.6051 42.8382 42.4335 42.6971 42.2899 42.5566C41.7428 41.9853 41.4618 41.3903 41.2112 40.7985C40.7431 39.6132 40.463 38.42 40.365 37.1628C40.3643 37.1541 40.3698 37.146 40.3782 37.1435V37.1435Z" fill="#231F20"/>
<path fill-rule="evenodd" clip-rule="evenodd" d="M65.0222 38.6407C65.0079 38.7495 64.8643 38.7017 64.6411 38.5699C64.5697 38.5282 64.4012 38.3547 64.3956 38.3118C64.3844 38.2285 64.3751 38.1459 64.38 38.075C64.38 38.0321 64.6623 37.5814 64.7624 37.4228C64.8556 37.268 64.9781 37.1431 65.1111 37.0312C65.3754 36.7962 65.6582 36.5779 65.9573 36.379C66.0238 36.3355 66.0984 36.3044 66.178 36.2839C66.4553 36.2186 66.694 36.0961 66.9302 35.9531C66.97 35.9301 67.016 35.9183 67.0384 35.8586C67.0676 35.7505 67.7782 35.4688 67.8864 35.4819C68.1457 35.4925 68.3931 35.4794 68.6449 35.5111C68.6803 35.5155 68.7133 35.49 68.7537 35.5397C68.8463 35.6541 68.9134 35.623 68.9874 35.623C69.0888 35.6205 69.192 35.6323 69.2952 35.6659C69.3461 35.6821 69.4002 35.7486 69.4512 35.8008C69.4972 35.8474 69.4854 36.034 69.473 36.0551C69.4357 36.1166 69.4755 36.2006 69.4842 36.277V36.277C69.4906 36.3301 69.4762 36.3801 69.4383 36.4179C69.3987 36.4573 69.3409 36.5105 69.2799 36.5646C69.1034 36.7212 68.8677 36.8488 68.648 36.9348V36.9348C68.4751 37.0032 68.3005 37.0852 68.2675 37.1107V37.1107C68.1949 37.16 68.0976 37.1275 68.0212 37.1706C67.9864 37.1901 67.9469 37.2131 67.9064 37.2369C67.7131 37.3507 67.5177 37.5422 67.2983 37.4961C67.289 37.4942 67.2795 37.4917 67.2697 37.4887C67.2392 37.4806 67.2212 37.4974 67.2013 37.5099C67.0303 37.6168 66.8345 37.6808 66.6449 37.7654C66.5498 37.8108 66.4683 37.8779 66.3807 37.9357C66.3645 37.9463 66.3402 37.9444 66.3203 37.9494C66.2955 37.9556 66.2675 37.9575 66.2482 37.9724C66.0456 38.1179 65.8062 38.2242 65.6359 38.4163C65.5948 38.4561 65.3026 38.5487 65.261 38.6053C65.2367 38.6345 65.0278 38.596 65.0222 38.6407" fill="#231F20"/>
<path fill-rule="evenodd" clip-rule="evenodd" d="M59.0316 24.7881C59.0167 24.9 58.8644 24.8491 58.6319 24.7148C58.5579 24.6719 58.3826 24.4941 58.3757 24.4499C58.3627 24.3629 58.3515 24.2765 58.354 24.2019C58.354 24.1571 58.6244 23.6747 58.7152 23.5C58.801 23.3315 58.9179 23.1947 59.0447 23.0704C59.3039 22.8186 59.5806 22.5879 59.8554 22.3666C59.9169 22.3181 59.9878 22.2808 60.0661 22.2584C60.3347 22.1789 60.5498 22.0297 60.7438 21.855C60.7761 21.8257 60.8171 21.8077 60.8215 21.7412C60.8327 21.6318 61.3854 21.2221 61.4749 21.2016C61.7074 21.1531 61.9163 21.071 62.1364 21.0014C62.1687 20.9933 62.1843 20.9585 62.2452 20.992C62.3869 21.0704 62.4273 21.0113 62.4895 20.9815C62.5759 20.9392 62.6648 20.9007 62.7699 20.8814C62.8221 20.8714 62.9085 20.9063 62.985 20.9274C63.0546 20.9467 63.1672 21.1214 63.1696 21.1487C63.1765 21.2264 63.266 21.2811 63.3232 21.3458C63.3425 21.3676 63.368 21.3962 63.381 21.4154V21.4154C63.6747 21.8091 62.9443 22.3626 62.5867 22.6993C62.5238 22.7584 62.477 22.8038 62.4622 22.8217C62.4298 22.8609 62.3689 22.8609 62.3167 22.8714C62.2918 22.8789 61.8094 23.3352 61.7876 23.3439C61.6658 23.4042 61.5843 23.5199 61.4053 23.4919C61.3698 23.4863 61.3512 23.5062 61.3307 23.523C61.1541 23.6641 60.9427 23.7511 60.7425 23.8537C60.6418 23.9066 60.5604 23.9861 60.4684 24.0502C60.4516 24.0626 60.4249 24.0601 60.4043 24.0663C60.3776 24.0738 60.3471 24.0757 60.3273 24.0925C60.1271 24.2665 59.8628 24.3623 59.6863 24.5643C59.6428 24.6053 59.3288 24.6955 59.2853 24.7539C59.2592 24.7838 59.0379 24.7421 59.0316 24.7881" fill="#231F20"/>
<path fill-rule="evenodd" clip-rule="evenodd" d="M50.9805 77.9173C50.9742 77.9137 50.9661 77.9155 50.9619 77.9215C50.6345 78.3874 50.2461 78.8568 49.7302 79.2227C49.5344 79.3477 49.351 79.4975 49.1247 79.5758C48.7361 79.7369 48.2792 79.7779 47.8832 79.7151C47.4816 79.6542 47.1179 79.5174 46.7921 79.3408C46.5024 79.1854 46.2226 79.0256 45.9565 78.8534C45.7881 78.7403 45.6152 78.6315 45.4592 78.5028C45.3094 78.366 45.1831 78.2031 45.0781 78.0247C45.014 77.9116 45.1322 77.8196 45.3224 77.7661V77.7661C45.7499 77.6525 46.1543 77.9006 46.5305 78.1333C46.9482 78.3917 47.3665 78.6088 47.7831 78.7695C48.1648 78.9069 48.5235 78.8018 48.8729 78.6085C49.254 78.4021 49.5928 78.0595 49.885 77.6536C50.0684 77.4067 50.2319 77.132 50.3886 76.8528C50.6205 76.4238 50.8549 75.9812 51.0576 75.5236C51.2117 75.1674 51.3168 74.7857 51.4853 74.422C51.5232 74.3418 51.5518 74.2579 51.5959 74.1801C51.7775 73.9004 51.9236 73.8668 52.1853 73.9744C52.2419 73.9967 52.2972 74.0123 52.342 74.0347C52.4775 74.0993 52.6062 74.3499 52.554 74.5668C52.4073 75.2178 52.1356 75.8258 51.8104 76.4692C51.5748 76.943 51.3092 77.4265 50.9996 77.9126C50.9955 77.919 50.9871 77.9211 50.9805 77.9173V77.9173Z" fill="#231F20"/>
<path fill-rule="evenodd" clip-rule="evenodd" d="M42.5796 17.7401C42.6486 17.8377 42.5137 17.9266 42.2707 18.0081C42.1929 18.0342 41.9561 18.0379 41.9194 18.0112C41.8498 17.9589 41.7795 17.9067 41.7279 17.8533C41.6999 17.8191 41.5097 17.2944 41.4183 17.1221C41.3356 16.9537 41.2921 16.7839 41.256 16.6136C41.1839 16.2679 41.0776 15.9291 41.0173 15.5859C41.0018 15.5101 41.0036 15.4318 41.0173 15.3516C41.0677 15.0749 41.0204 14.8107 40.9315 14.5545C40.9166 14.5116 40.9154 14.465 40.8532 14.4333C40.8291 14.4218 40.8015 14.3769 40.7739 14.3131C40.5709 13.844 40.6698 13.3165 40.7344 12.8094V12.8094C40.7388 12.7734 40.7121 12.7423 40.7655 12.6975C40.8899 12.5925 40.8457 12.5272 40.8544 12.4482C40.8563 12.4206 40.8581 12.3929 40.8603 12.3651C40.8733 12.1981 40.9608 12.0553 41.0608 11.921V11.921C41.1044 11.8626 41.2306 11.8564 41.2542 11.8669C41.312 11.9005 41.3711 11.8464 41.4245 11.8284C41.4432 11.8222 41.4674 11.8141 41.4848 11.8122C41.5136 11.8068 41.6641 11.9033 41.8162 12.0157C42.0683 12.2022 42.2305 12.4868 42.3565 12.774V12.774C42.4534 12.9947 42.5591 13.226 42.5865 13.272V13.272C42.6444 13.3661 42.6067 13.4892 42.6419 13.5939C42.7133 13.8057 42.8312 14.1564 42.8308 14.1784C42.8376 14.3289 42.9129 14.47 42.8053 14.6397C42.7848 14.6733 42.796 14.7019 42.8028 14.7317C42.8575 14.9841 42.8389 15.249 42.8345 15.5088C42.832 15.6419 42.8619 15.7712 42.8625 15.9036C42.8631 15.9272 42.8451 15.9527 42.8376 15.9776C42.8283 16.0087 42.8128 16.0404 42.8146 16.0702C42.8364 16.3805 42.7767 16.6963 42.8233 17.0022C42.8333 17.073 42.7015 17.4193 42.7183 17.4989C42.7264 17.5449 42.5504 17.7016 42.5796 17.7401" fill="#231F20"/>
<path fill-rule="evenodd" clip-rule="evenodd" d="M22.4504 18.8311C22.3179 18.8137 22.3857 18.6365 22.5797 18.3773C22.6412 18.2946 22.8781 18.0981 22.9291 18.0894C23.0279 18.0714 23.1243 18.0546 23.2026 18.0527C23.2486 18.0565 23.7006 18.2964 23.8728 18.3474C24.0332 18.4059 24.1638 18.4941 24.2893 18.5905L25.0882 19.1482C25.1479 19.1898 25.1976 19.2451 25.2424 19.311C25.3916 19.5411 25.6055 19.6872 25.8411 19.8003C25.8803 19.819 25.9132 19.8507 25.9766 19.8277C26.0767 19.7916 26.6885 20.1553 26.7506 20.2386C26.8986 20.4438 27.0696 20.6166 27.2325 20.805C27.2561 20.8317 27.2977 20.833 27.2928 20.9026C27.281 21.0636 27.3556 21.0798 27.4134 21.1258C27.4929 21.1904 27.5694 21.2626 27.6316 21.3564C27.6627 21.4024 27.6627 21.4988 27.6708 21.5809C27.6788 21.6555 27.5458 21.8295 27.5203 21.842C27.4457 21.8774 27.4246 21.9843 27.3817 22.0645C27.3674 22.0913 27.3481 22.1261 27.3338 22.1466C27.3008 22.1901 26.6157 22.2231 26.5623 22.1901C26.5561 22.187 26.3565 22.1062 26.1439 22.0185C25.9312 21.9334 25.7074 21.8451 25.6577 21.832C25.6061 21.819 25.5794 21.7636 25.5458 21.7195C25.5315 21.7033 24.87 21.4484 24.847 21.4279C24.7314 21.339 24.5759 21.3055 24.5231 21.1189C24.5132 21.0823 24.4839 21.0717 24.4584 21.0586C24.2334 20.938 24.05 20.754 23.8616 20.5787C23.764 20.4904 23.6484 20.4245 23.5433 20.3449C23.5247 20.3306 23.5178 20.3008 23.5041 20.2797C23.4867 20.2535 23.4755 20.2181 23.4519 20.2007C23.2032 20.0098 23.0149 19.75 22.7531 19.5678C22.6891 19.5274 22.5561 19.1699 22.487 19.1233C22.4454 19.0966 22.502 18.8379 22.4504 18.8311" fill="#231F20"/>
</g>
<defs>
<filter id="filter0_d_227_8" x="0" y="0" width="94.0111" height="96.0112" filterUnits="userSpaceOnUse" color-interpolation-filters="sRGB">
<feFlood flood-opacity="0" result="BackgroundImageFix"/>
<feColorMatrix in="SourceAlpha" type="matrix" values="0 0 0 0 0 0 0 0 0 0 0 0 0 0 0 0 0 0 127 0" result="hardAlpha"/>
<feOffset dx="2" dy="4"/>
<feComposite in2="hardAlpha" operator="out"/>
<feColorMatrix type="matrix" values="0 0 0 0 0 0 0 0 0 0 0 0 0 0 0 0 0 0 1 0"/>
<feBlend mode="normal" in2="BackgroundImageFix" result="effect1_dropShadow_227_8"/>
<feBlend mode="normal" in="SourceGraphic" in2="effect1_dropShadow_227_8" result="shape"/>
</filter>
</defs>
</svg>
