<svg width="67" height="68" viewBox="0 0 67 68" fill="none" xmlns="http://www.w3.org/2000/svg">
<path fill-rule="evenodd" clip-rule="evenodd" d="M15.4387 37.7095C15.1847 37.4601 14.9288 37.2107 14.671 36.9632C12.0431 34.4442 9.43568 31.9224 6.98925 29.221C6.39649 28.5668 5.28354 27.2975 4.16595 26.6443C3.3666 26.1772 2.5393 25.9818 1.78276 26.0785C1.30073 26.14 0.596332 26.3828 0.242721 27.3069C0.183165 27.4623 0.112459 27.7293 0.0845424 28.0699C0.0398757 28.6208 0.0835905 29.6091 0.0975488 29.7458C0.292965 31.7391 0.488375 33.6449 0.846639 35.6167C1.17606 37.4313 1.40124 39.2599 1.75578 41.0717C2.2862 43.7824 2.96925 46.3916 3.96494 48.973C4.33437 49.9314 5.41289 50.4088 6.37136 50.0394C7.3289 49.67 7.8072 48.5924 7.43777 47.6339C6.52117 45.2564 5.89678 42.8537 5.40917 40.357C5.05742 38.5619 4.835 36.7492 4.50837 34.9514C4.29621 33.7817 4.14544 32.6362 4.01703 31.4804L4.23013 31.7195C6.73611 34.4861 9.40404 37.0703 12.0952 39.6498C13.1021 40.6157 14.0745 41.6095 15.0972 42.5596C15.18 42.6806 15.5624 43.2352 15.7504 43.425C16.0631 43.7414 16.4009 43.9182 16.6949 44.0057C17.4422 44.229 18.2006 44.1462 18.8631 43.3087C19.3591 42.6815 19.6448 41.709 19.6234 40.5477C19.5945 38.9518 18.9888 36.8479 18.8604 35.8782C18.0471 29.7431 16.7313 23.6321 16.3814 17.4439C16.3237 16.4185 15.4443 15.633 14.4188 15.6907C13.3933 15.7494 12.607 16.6287 12.6656 17.6542C13.0202 23.9354 14.3444 30.1395 15.1698 36.3677C15.2144 36.699 15.3205 37.1707 15.4387 37.7095Z" fill="black"/>
<path fill-rule="evenodd" clip-rule="evenodd" d="M31.7006 12.278C29.5901 12.8372 27.4759 13.3248 25.7804 14.7746C24.0068 16.2924 23.1051 18.4969 22.784 20.9535C22.3746 24.0876 22.9236 27.6433 23.2642 30.1772C23.441 31.4893 23.5164 33.3178 23.8988 34.9379C24.2283 36.331 24.7894 37.5788 25.6445 38.4526C26.9883 39.8252 29.0504 39.9638 31.1655 39.1077C33.6092 38.1185 36.0426 35.8359 36.7042 34.5052C37.162 33.5858 36.787 32.4673 35.8667 32.0104C34.9473 31.5526 33.8297 31.9276 33.3719 32.847C32.9522 33.691 31.3191 35.0301 29.7688 35.6582C29.4226 35.7978 29.0802 35.902 28.7563 35.928C28.5879 35.942 28.4195 35.9662 28.305 35.8499C27.7439 35.2757 27.5466 34.3424 27.3838 33.3997C27.1558 32.0858 27.0925 30.7132 26.9538 29.6803C26.6486 27.4144 26.1089 24.2384 26.4746 21.4356C26.671 19.9327 27.1148 18.5323 28.2008 17.6036C29.4608 16.526 31.0836 16.2924 32.6535 15.8764C33.6464 15.614 34.2392 14.5941 33.9758 13.6012C33.7134 12.6083 32.6935 12.0155 31.7006 12.278Z" fill="black"/>
<path fill-rule="evenodd" clip-rule="evenodd" d="M31.5579 22.0849C29.9229 22.9754 28.1754 23.891 26.4231 24.5201C25.4563 24.8672 24.9528 25.9337 25.299 26.9005C25.6461 27.8673 26.7125 28.3707 27.6793 28.0237C29.6093 27.3313 31.5383 26.3347 33.338 25.3548C34.2398 24.8635 34.5738 23.7319 34.0825 22.8302C33.5911 21.9276 32.4606 21.5945 31.5579 22.0849Z" fill="black"/>
<path fill-rule="evenodd" clip-rule="evenodd" d="M54.0349 23.0728C52.6763 21.4294 51.2405 19.8122 49.7237 18.3344C49.5999 18.2144 48.0701 16.9544 47.1609 16.4835C46.5477 16.1662 46.0042 16.1085 45.686 16.1392C44.7601 16.2286 44.1952 16.7302 43.9635 17.5881C43.7421 18.4107 43.6621 19.2678 43.6621 20.1425C42.2858 17.5621 41.0267 14.9081 40.2618 12.1137C40.1985 11.8829 40.1473 11.7749 40.139 11.7554C39.8812 11.1859 39.5155 10.9923 39.3852 10.916C38.745 10.5401 38.168 10.6034 37.6814 10.8221C37.6218 10.8481 36.3097 11.4306 36.6233 12.9186C36.6484 13.0386 36.8625 13.8938 36.9248 14.2279C36.9797 14.5182 37.0988 14.7797 37.2654 15.0012C38.5477 18.6843 40.5093 22.1637 42.3919 25.5611C42.7985 26.2953 43.1158 27.0518 43.3252 27.8642C43.3866 28.1015 43.4117 28.6384 43.4657 28.9018C43.5578 29.3475 43.7402 29.6462 43.8565 29.7988C44.4614 30.5935 45.2068 30.6745 45.8944 30.4707C46.1885 30.3842 46.7775 30.186 47.1358 29.3326C47.9416 27.4157 47.8505 25.2987 47.6169 23.1658C47.548 22.5349 47.4625 21.904 47.4103 21.2805C49.0658 22.9258 50.6151 24.7403 52.0715 26.554C52.2315 26.7531 53.8526 28.5659 54.2834 28.8357C55.361 29.5132 56.1976 29.0041 56.5558 28.7008C57.1021 28.2374 57.532 27.4418 57.7069 26.4284C57.9321 25.1173 57.7544 23.3129 57.7367 22.587C57.6185 17.7016 57.4417 12.5948 56.3446 7.82473C56.1147 6.82346 55.1153 6.19809 54.114 6.42794C53.1128 6.65778 52.4875 7.65816 52.7173 8.65851C53.7586 13.1885 53.9028 18.0394 54.0154 22.6773C54.0182 22.7843 54.0256 22.9183 54.0349 23.0728Z" fill="black"/>
<path d="M62.3722 6.00435L62.4508 6.38458C62.4697 6.47554 62.4885 6.56652 62.5073 6.6575C63.162 9.82154 63.8201 13.0022 64.2543 16.3039L64.2543 16.3039C64.3164 16.7757 64.7496 17.108 65.2205 17.0462L62.3722 6.00435ZM62.3722 6.00435L62.0576 5.77682M62.3722 6.00435L62.0576 5.77682M62.0576 5.77682C61.8271 5.61013 61.6861 5.33623 61.7016 5.034L61.7016 5.03362C61.7314 4.44633 61.7437 3.86102 61.7198 3.25543L61.7198 3.25349C61.7139 3.11178 61.6954 2.87991 61.6805 2.69265L61.6786 2.66849C61.6705 2.56634 61.6632 2.47489 61.6582 2.4035C61.6557 2.36862 61.654 2.34267 61.6531 2.32497C61.6619 2.11459 61.7101 1.98337 61.7551 1.90113C61.8029 1.81384 61.8665 1.74648 61.9419 1.69105C62.1089 1.56833 62.3042 1.52532 62.363 1.51492L62.3633 1.51487C62.3617 1.51517 62.3625 1.51508 62.3656 1.51474C62.3955 1.51152 62.6346 1.48581 62.8681 1.56286C62.9815 1.60028 63.0746 1.65568 63.1491 1.73668C63.2205 1.81437 63.3175 1.96158 63.3734 2.25178L63.3735 2.25234C63.6449 3.65811 63.9294 5.03637 64.2115 6.40265C64.8771 9.62703 65.529 12.7847 65.962 16.0797L65.962 16.0798M62.0576 5.77682L65.962 16.0798M65.962 16.0798C66.024 16.551 65.6913 16.9841 65.2206 17.0462L65.962 16.0798ZM61.6522 2.34962L61.6523 2.34701L61.6522 2.34962Z" fill="#FF0000" stroke="black" stroke-width="2"/>
<path fill-rule="evenodd" clip-rule="evenodd" d="M66.2883 25.8207C66.4772 25.2456 66.3813 24.5887 65.9756 24.0797C65.3344 23.2766 64.1628 23.1454 63.3598 23.7866C62.6181 24.3784 62.4795 25.0996 62.579 25.9817C62.6944 27.0026 63.6175 27.7377 64.6384 27.6213C65.5717 27.5162 66.2659 26.7345 66.2883 25.8207Z" fill="black"/>
<path d="M31.1967 64.1514L30.2509 62.1486C30.1567 61.949 30.0722 61.7715 30.0071 61.6362C29.9745 61.5684 29.9473 61.5124 29.9266 61.4701C29.9034 61.4228 29.8942 61.4052 29.8944 61.4055C28.1781 58.1955 26.319 55.0341 24.2984 52.0211L31.1967 64.1514ZM31.1967 64.1514L32.0735 62.1175M31.1967 64.1514L32.0735 62.1175M32.0735 62.1175C32.5364 61.0436 32.9379 59.9057 33.1089 59.4211C33.1371 59.3411 33.1591 59.2789 33.174 59.2378L33.1747 59.2356C33.5642 58.1521 33.8889 57.0224 34.1856 55.9522L34.1858 55.9517C34.768 53.847 35.0907 51.7159 35.3803 49.6268L35.3804 49.6263C35.4453 49.1568 35.8807 48.8268 36.351 48.8915C36.8228 48.9573 37.1514 49.3928 37.0862 49.8627L37.0861 49.8631C36.7751 52.1076 36.4333 54.2852 35.8454 56.4115C35.5268 57.5628 35.1897 58.722 34.7955 59.8183C34.6859 60.1219 34.2998 61.1843 33.8146 62.3385C33.3143 63.5285 32.7585 64.6928 32.3222 65.2749L32.322 65.2751M32.0735 62.1175L32.322 65.2751M32.322 65.2751C31.7385 66.054 31.1155 66.1199 30.8607 66.0822M32.322 65.2751L30.8607 66.0822M28.3762 62.2178C26.6925 59.0698 24.8638 55.9556 22.8681 52.9804C22.6034 52.5857 22.709 52.0502 23.1036 51.7856C23.4983 51.5209 24.0337 51.6264 24.2984 52.0211L29.9023 65.3613C29.656 65.0028 29.3252 64.3313 29.017 63.653C28.8685 63.3263 28.7342 63.0183 28.6271 62.7723C28.6185 62.7528 28.61 62.733 28.6013 62.7132C28.5159 62.5169 28.4278 62.3143 28.3762 62.2178ZM28.3762 62.2178L27.4959 62.6886L28.376 62.2176C28.3761 62.2176 28.3761 62.2177 28.3762 62.2178ZM30.8607 66.0822C30.7301 66.0628 30.2894 65.9237 29.9024 65.3614L30.8607 66.0822Z" fill="#FF0000" stroke="black" stroke-width="2"/>
</svg>
